<svg width="15" height="19" viewBox="0 0 15 19" fill="none" xmlns="http://www.w3.org/2000/svg">
<path d="M14.6667 9.42083C12.659 8.94979 10.8506 7.77813 9.56322 6.11958C8.27586 4.46104 7.57471 2.375 7.57471 0.249375V0H7.42146V0.249375C7.42146 2.375 6.71264 4.46104 5.42912 6.11958C4.14559 7.77813 2.33333 8.95375 0.325671 9.42083L0 9.5L0.325671 9.57521C2.33333 10.0462 4.14559 11.2179 5.42912 12.8804C6.71264 14.5429 7.42146 16.625 7.42146 18.7506V19H7.57471V18.7506C7.57471 16.625 8.28352 14.539 9.56705 12.8804C10.8506 11.2179 12.6628 10.0462 14.6705 9.57521L15 9.49604L14.6667 9.42083Z" fill="#111310"/>
</svg>
