<svg width="55" height="62" viewBox="0 0 55 62" fill="none" xmlns="http://www.w3.org/2000/svg">
<path fill-rule="evenodd" clip-rule="evenodd" d="M27.3096 0C28.6336 0 29.7068 1.06764 29.7068 2.38462V26.8697L51.0232 14.6272C52.1695 13.9687 53.6356 14.3594 54.2977 15.5C54.9593 16.6406 54.5666 18.0989 53.4203 18.7574L32.1039 31L53.4203 43.2426C54.5666 43.9012 54.9593 45.3597 54.2977 46.5C53.6356 47.6403 52.1695 48.0314 51.0232 47.3728L29.7068 35.1303V59.6154C29.7068 60.9322 28.6336 62 27.3096 62C25.9857 62 24.9125 60.9322 24.9125 59.6154V35.1302L3.59616 47.3728C2.4496 48.0314 0.983502 47.6403 0.321551 46.5C-0.3404 45.3597 0.052446 43.9012 1.19901 43.2426L22.5153 31L1.19901 18.7574C0.052446 18.0989 -0.3404 16.6406 0.321551 15.5C0.983502 14.3594 2.4496 13.9687 3.59616 14.6272L24.9125 26.8697V2.38462C24.9125 1.06764 25.9857 0 27.3096 0Z" fill="black"/>
</svg>
