<svg width="54" height="78" viewBox="0 0 54 78" fill="none" xmlns="http://www.w3.org/2000/svg">
<path d="M51.3356 72.5525C51.1573 71.8377 50.7504 72.3889 50.3552 72.0394C50.0359 71.757 50.985 69.5516 51.0528 69.2571C52.8715 61.3645 51.3942 52.9512 48.0931 45.6755C40.1997 28.2784 22.0786 21.0781 3.83761 21.4502" stroke="white" stroke-width="2" stroke-linecap="round" stroke-linejoin="round"/>
<path d="M3.12649 24.1191C3.0769 24.0986 1.58202 23.4235 2.46509 23.3952C4.096 23.3429 5.62127 24.7569 6.66089 25.8168C11.171 30.4146 14.5567 36.2432 17.1738 42.0575" stroke="white" stroke-width="2" stroke-linecap="round" stroke-linejoin="round"/>
<path d="M3.26703 21.0023C1.88319 21.1693 5.69951 19.6258 6.8182 18.7943C12.1948 14.7978 15.0337 9.22887 17.6584 3.24961" stroke="white" stroke-width="2" stroke-linecap="round" stroke-linejoin="round"/>
</svg>
