<svg width="68" height="83" viewBox="0 0 68 83" fill="none" xmlns="http://www.w3.org/2000/svg">
<path d="M66.4889 41.1542C57.3875 39.0965 49.1893 33.9781 43.3533 26.7329C37.5172 19.4877 34.3387 10.375 34.3387 1.08937V0H33.6439V1.08937C33.6439 10.375 30.4307 19.4877 24.612 26.7329C18.7934 33.9781 10.5778 39.1138 1.47637 41.1542L0 41.5L1.47637 41.8285C10.5778 43.8863 18.7934 49.0046 24.612 56.2671C30.4307 63.5296 33.6439 72.625 33.6439 81.9106V83H34.3387V81.9106C34.3387 72.625 37.552 63.5123 43.3706 56.2671C49.1893 49.0046 57.4049 43.8863 66.5063 41.8285L68 41.4827L66.4889 41.1542Z" fill="black"/>
</svg>
