<svg width="133" height="133" viewBox="0 0 133 133" fill="none" xmlns="http://www.w3.org/2000/svg">
<path d="M62.5887 66.5C62.5887 103.48 42.2776 121.467 0.000488281 121.328C0.000488281 121.313 0.000488281 84.782 0.000488281 11.7352C0.000488281 5.25402 5.25451 0 11.7357 0H121.265C124.723 0 127.832 1.49573 129.979 3.87544C85.5701 4.68046 62.5887 25.8264 62.5887 66.5ZM133 11.6723V121.265C133 127.746 127.746 133 121.265 133H11.7357C8.27766 133 5.16904 131.504 3.0213 129.125C47.4308 128.32 70.4123 107.174 70.4123 66.5C70.4123 29.5203 90.7234 11.5333 133 11.6723Z" fill="black"/>
</svg>
