<svg width="103" height="103" viewBox="0 0 103 103" fill="none" xmlns="http://www.w3.org/2000/svg">
<path d="M48.4706 51.5C48.4706 80.1384 32.7409 94.0682 0 93.9605C0 93.9491 0 65.6583 0 9.08814C0 4.0689 4.0689 0 9.08814 0H93.9117C96.5897 0 98.9971 1.15835 100.66 3.00128C66.2682 3.62471 48.4706 20.0009 48.4706 51.5ZM103 9.03946V93.9119C103 98.9311 98.9311 103 93.9119 103H9.08814C6.41014 103 4.00272 101.842 2.33943 99.9987C36.7318 99.3753 54.5294 82.9991 54.5294 51.5C54.5294 22.8616 70.2591 8.93183 103 9.03946Z" fill="black"/>
</svg>
