<svg width="91" height="91" viewBox="0 0 91 91" fill="none" xmlns="http://www.w3.org/2000/svg">
<path d="M42.8235 45.5C42.8235 70.8019 28.9264 83.1088 0 83.0137C0 83.0036 0 58.0088 0 8.02933C0 3.59486 3.59486 0 8.02933 0H82.9705C85.3365 0 87.4634 1.02339 88.9329 2.65162C58.5477 3.20242 42.8235 17.6707 42.8235 45.5ZM91 7.98632V82.9707C91 87.4051 87.4051 91 82.9707 91H8.02933C5.66333 91 3.53638 89.9766 2.06687 88.3484C32.4523 87.7976 48.1765 73.3293 48.1765 45.5C48.1765 20.1981 62.0736 7.89123 91 7.98632Z" fill="black"/>
</svg>
