<svg width="31" height="31" viewBox="0 0 31 31" fill="none" xmlns="http://www.w3.org/2000/svg">
<path fill-rule="evenodd" clip-rule="evenodd" d="M24.8926 7.70947L7.71006 24.892L6.23725 23.4192L23.4198 6.23667L24.8926 7.70947Z" fill="white"/>
<path fill-rule="evenodd" clip-rule="evenodd" d="M22.6825 6.97312C19.2189 10.4367 19.4345 16.3129 22.6824 19.5608L23.4188 20.2972L24.8917 18.8244L24.1553 18.088C21.6892 15.6219 21.5362 11.065 24.1553 8.44592L24.8918 7.70941L23.419 6.23661L22.6825 6.97312Z" fill="white"/>
<path fill-rule="evenodd" clip-rule="evenodd" d="M24.1561 8.44598C20.6925 11.9096 14.8163 11.694 11.5684 8.44606L10.832 7.70966L12.3048 6.23683L13.0412 6.97323C15.5072 9.43919 20.0642 9.59221 22.6833 6.97318L23.4198 6.23667L24.8926 7.70947L24.1561 8.44598Z" fill="white"/>
</svg>
