<svg width="53" height="52" viewBox="0 0 53 52" fill="none" xmlns="http://www.w3.org/2000/svg">
<path fill-rule="evenodd" clip-rule="evenodd" d="M43.0547 12.3574L12.9888 42.3098L10.4117 39.7425L40.4776 9.79004L43.0547 12.3574Z" fill="white"/>
<path fill-rule="evenodd" clip-rule="evenodd" d="M39.1871 11.0737C33.1265 17.1115 33.5039 27.3547 39.1871 33.0165L40.4756 34.3002L43.0528 31.7328L41.7642 30.4491C37.4492 26.1503 37.1815 18.2066 41.7642 13.6411L43.053 12.3573L40.4759 9.78987L39.1871 11.0737Z" fill="white"/>
<path fill-rule="evenodd" clip-rule="evenodd" d="M41.7659 13.6413C35.7054 19.679 25.4233 19.3032 19.7401 13.6414L18.4516 12.3577L21.0287 9.79031L22.3173 11.074C26.6322 15.3727 34.6061 15.6394 39.1888 11.0739L40.4776 9.79004L43.0547 12.3574L41.7659 13.6413Z" fill="white"/>
</svg>
