<svg width="38" height="38" viewBox="0 0 38 38" fill="none" xmlns="http://www.w3.org/2000/svg">
<g clip-path="url(#clip0_2083_489)">
<path d="M16.6229 0C7.45894 0 0 6.07212 0 13.5358C0 17.3163 1.89976 20.8618 5.25522 23.4122C4.18898 25.0697 2.71191 26.8959 0.902387 27.3447C0.330084 27.4872 -0.0522435 28.0286 0.00712411 28.6152C0.064117 29.2041 0.548556 29.6577 1.13748 29.6838C1.16598 29.6838 1.27047 29.6885 1.43907 29.6885C2.67154 29.6885 7.40907 29.4914 12.783 26.7035C14.0084 26.9481 15.2978 27.0716 16.6229 27.0716C25.7869 27.0716 33.2458 20.9995 33.2458 13.5358C33.2458 6.07212 25.7869 0 16.6229 0ZM16.6229 24.6969C15.3168 24.6969 14.0559 24.5616 12.8709 24.2932C12.5931 24.2291 12.2986 24.2695 12.0445 24.4072C9.74578 25.6468 7.54443 26.3592 5.73491 26.7677C6.57318 25.7893 7.27372 24.6969 7.86977 23.6877C8.19273 23.1415 8.0265 22.4386 7.49694 22.0919C4.24122 19.9594 2.3747 16.8414 2.3747 13.5358C2.3747 7.38058 8.76503 2.3747 16.6229 2.3747C24.4808 2.3747 30.8711 7.38058 30.8711 13.5358C30.8711 19.6887 24.4808 24.6969 16.6229 24.6969Z" fill="white"/>
<path d="M37.0991 35.6349C35.7408 35.2905 34.4275 34.1958 33.1903 32.3744C36.2584 29.9997 37.9944 26.7297 37.9944 23.2484C37.9944 21.598 37.6002 19.9713 36.8236 18.4183C36.5292 17.8293 35.8096 17.599 35.2302 17.8887C34.6436 18.1832 34.4062 18.8956 34.6983 19.4821C35.3086 20.7027 35.6196 21.9684 35.6196 23.2484C35.6196 26.2595 33.9099 29.1092 30.9296 31.0659C30.3977 31.4126 30.2362 32.1179 30.5615 32.6641C31.1481 33.6544 31.7536 34.5069 32.3853 35.224C30.7729 34.8892 28.8422 34.2836 26.8261 33.1984C26.5768 33.0631 26.2823 33.0251 26.0069 33.0844C21.2337 34.134 16.0925 32.8921 12.8724 30.0519C12.3761 29.615 11.628 29.6649 11.1958 30.1564C10.7613 30.648 10.8088 31.3984 11.3003 31.833C14.9835 35.0768 20.6994 36.5396 26.0876 35.4924C30.4096 37.7151 34.2922 38.0001 36.0044 38.0001C36.5482 38.0001 36.8711 37.9716 36.9234 37.9668C37.498 37.9122 37.9516 37.4515 37.9944 36.8768C38.0371 36.2998 37.6595 35.7773 37.0991 35.6349Z" fill="white"/>
</g>
<defs>
<clipPath id="clip0_2083_489">
<rect width="38" height="38" fill="white"/>
</clipPath>
</defs>
</svg>
