<svg width="57" height="61" viewBox="0 0 57 61" fill="none" xmlns="http://www.w3.org/2000/svg">
<path d="M47.8788 41.3958C49.572 40.3893 50.7089 38.5423 50.7089 36.4358C50.7089 33.255 48.12 30.6673 44.9368 30.6673C41.7536 30.6673 39.1647 33.255 39.1647 36.4358C39.1647 38.546 40.3041 40.393 42.0009 41.3995C39.1142 42.0098 36.6853 44.0967 35.6726 46.8935C34.4655 46.138 33.0997 45.6188 31.6404 45.3936C33.9905 44.232 35.6123 41.8117 35.6123 39.0185C35.6123 35.0995 32.4217 31.9113 28.5002 31.9113C24.5787 31.9113 21.3881 35.0995 21.3881 39.0185C21.3881 41.8117 23.0086 44.232 25.36 45.3936C23.9007 45.6175 22.5337 46.1368 21.3278 46.8935C20.3151 44.0967 17.8862 42.0098 14.9995 41.3995C16.6951 40.3942 17.8357 38.546 17.8357 36.4358C17.8357 33.255 15.2468 30.6673 12.0636 30.6673C8.88037 30.6673 6.29147 33.255 6.29147 36.4358C6.29147 38.5436 7.42842 40.3893 9.12154 41.3958C5.55565 42.1341 2.7674 45.0835 2.34658 48.8291C2.21492 49.9943 2.55945 51.071 3.3408 51.9458C4.12215 52.8195 5.15451 53.2809 6.32715 53.2809H16.6569C16.5363 53.7534 16.4465 54.2382 16.3912 54.7341C16.2312 56.1516 16.6495 57.4633 17.6019 58.5276C18.5531 59.5907 19.8106 60.1531 21.238 60.1531H35.7624C37.1898 60.1531 38.4473 59.5907 39.3985 58.5276C40.3496 57.4633 40.768 56.1528 40.6092 54.7341C40.5539 54.237 40.464 53.7522 40.3435 53.2809H50.6732C51.8459 53.2809 52.8782 52.8195 53.6596 51.9458C54.4409 51.0722 54.7855 49.9943 54.6538 48.8291C54.233 45.0835 51.4447 42.1353 47.8788 41.3958ZM40.6425 36.4358C40.6425 34.0696 42.5694 32.1439 44.938 32.1439C47.3067 32.1439 49.2336 34.0696 49.2336 36.4358C49.2336 38.802 47.3067 40.7277 44.938 40.7277C42.5694 40.7277 40.6425 38.802 40.6425 36.4358ZM22.8646 39.0185C22.8646 35.9141 25.392 33.3879 28.5002 33.3879C31.6071 33.3879 34.1357 35.9141 34.1357 39.0185C34.1357 42.123 31.6071 44.6504 28.5002 44.6504C25.3933 44.6504 22.8646 42.1242 22.8646 39.0185ZM7.76803 36.4358C7.76803 34.0696 9.69494 32.1439 12.0636 32.1439C14.4322 32.1439 16.3592 34.0696 16.3592 36.4358C16.3592 38.802 14.4322 40.7277 12.0636 40.7277C9.69494 40.7277 7.76803 38.802 7.76803 36.4358ZM17.1528 51.8056H6.32838C5.57779 51.8056 4.94287 51.5213 4.44207 50.9627C3.94127 50.4028 3.73086 49.7421 3.81453 48.9964C4.21936 45.4034 7.25369 42.6927 10.875 42.6927H13.2535C16.4035 42.6927 19.2003 44.8214 20.0752 47.8139C18.8152 48.8857 17.805 50.2466 17.1528 51.8056ZM38.2972 57.5445C37.6241 58.2963 36.7714 58.6777 35.7624 58.6777H21.238C20.229 58.6777 19.375 58.2963 18.7032 57.5445C18.0301 56.7927 17.7471 55.903 17.8591 54.9002C18.3821 50.2503 22.3097 46.7434 26.9941 46.7434H30.0063C34.6907 46.7434 38.6183 50.2503 39.1413 54.9002C39.2545 55.903 38.9703 56.7927 38.2972 57.5445ZM52.5596 50.9615C52.0588 51.5213 51.4238 51.8043 50.6732 51.8043H39.8488C39.1967 50.2453 38.1864 48.8844 36.9277 47.8127C37.8013 44.819 40.5994 42.6915 43.7494 42.6915H46.1279C49.7479 42.6915 52.7835 45.401 53.1883 48.9952C53.2708 49.7408 53.0591 50.4028 52.5596 50.9615ZM9.76385 21.8227C9.90781 21.9667 10.0973 22.0393 10.2856 22.0393C10.4738 22.0393 10.6633 21.9667 10.8073 21.8227L14.8937 17.7388C15.4437 17.1888 15.7476 16.4554 15.7476 15.6729C15.7476 14.8903 15.4449 14.1569 14.8937 13.6069C13.7543 12.4687 11.8999 12.4675 10.7605 13.6069L10.2856 14.0819L9.81061 13.6069C8.67119 12.4687 6.81687 12.4687 5.67746 13.6069C5.12744 14.1569 4.82352 14.8903 4.82352 15.6729C4.82352 16.4554 5.12621 17.1888 5.67746 17.7388L9.76385 21.8227ZM6.7209 14.6516C7.28445 14.088 8.20238 14.088 8.76717 14.6516L9.76385 15.6482C10.0518 15.9362 10.5194 15.9362 10.8073 15.6482L11.804 14.6516C12.3675 14.088 13.2854 14.088 13.8502 14.6516C14.1222 14.9223 14.2711 15.2853 14.2711 15.6729C14.2711 16.0604 14.1222 16.4234 13.8502 16.6941L10.2856 20.2563L6.7209 16.6941C6.44897 16.4234 6.30008 16.0604 6.30008 15.6729C6.30008 15.2853 6.4502 14.9223 6.7209 14.6516ZM23.9056 19.6251H26.8698C27.0901 19.6251 27.2882 19.5279 27.4235 19.3741C28.7266 19.774 30.2991 20.0644 31.8828 20.0644C32.9262 20.0644 33.9758 19.9389 34.9552 19.6362C36.3075 19.2191 37.0163 17.7745 37.0163 16.5637V14.6823C37.0163 13.9982 36.7579 13.3842 36.2681 12.9068C35.7784 12.4293 35.1583 12.1857 34.4754 12.2017L33.4221 12.2275V10.6033C33.4221 9.01109 32.1264 7.71664 30.5342 7.71664C30.0124 7.71664 29.6938 7.93074 29.519 8.10916C29.0601 8.58043 29.0761 9.27688 29.0933 9.9524C29.1093 10.6205 29.1265 11.3121 28.7438 11.7046C28.5039 11.9507 28.0917 12.107 27.517 12.1697C27.3915 11.9421 27.1491 11.7883 26.8711 11.7883H23.9069C23.4996 11.7883 23.1686 12.1193 23.1686 12.5265V18.8856C23.1673 19.2941 23.4971 19.6251 23.9056 19.6251ZM29.7971 12.7357C30.6141 11.8978 30.5858 10.7522 30.5662 9.91672C30.56 9.68908 30.5526 9.36793 30.5785 9.19443C31.3352 9.22027 31.9418 9.84289 31.9418 10.6046V12.9855C31.9418 13.1848 32.0218 13.3743 32.1645 13.5134C32.3073 13.6524 32.498 13.7287 32.6986 13.7226L34.5086 13.6783C34.799 13.6721 35.0278 13.7619 35.2346 13.9637C35.4413 14.1655 35.5372 14.3932 35.5372 14.6823V16.5637C35.5372 17.2257 35.1558 18.028 34.5172 18.2248C32.2691 18.9188 29.5621 18.5288 27.6056 17.884V13.6438C28.5765 13.5478 29.2975 13.2488 29.7971 12.7357ZM24.6439 13.2661H26.1315V18.1486H24.6439V13.2661ZM44.3056 16.4161C44.3056 16.0088 44.6366 15.6778 45.0438 15.6778H46.6619V14.0597C46.6619 13.6524 46.9929 13.3214 47.4002 13.3214C47.8075 13.3214 48.1385 13.6524 48.1385 14.0597V15.6778H49.7565C50.1638 15.6778 50.4948 16.0088 50.4948 16.4161C50.4948 16.8233 50.1638 17.1543 49.7565 17.1543H48.1385V18.7724C48.1385 19.1797 47.8075 19.5107 47.4002 19.5107C46.9929 19.5107 46.6619 19.1797 46.6619 18.7724V17.1543H45.0438C44.6366 17.1543 44.3056 16.8233 44.3056 16.4161ZM10.2942 26.517C11.3598 26.517 12.4007 26.3435 13.3974 26.0014L16.7591 29.5858C16.9018 29.7383 17.0987 29.8196 17.298 29.8196C17.4137 29.8196 17.5306 29.7925 17.6388 29.7359C17.9329 29.5833 18.088 29.2523 18.0203 28.9287L16.9436 23.8296C17.8382 22.9671 18.5457 21.9532 19.0428 20.8334C19.6224 21.7551 20.3188 22.6078 21.1223 23.3682L19.5805 30.6784C19.5116 31.002 19.6679 31.3318 19.962 31.4856C20.0703 31.5422 20.1871 31.5693 20.3028 31.5693C20.5021 31.5693 20.6978 31.4893 20.8418 31.3367L25.6849 26.1749C27.0975 26.6819 28.5777 26.939 30.0924 26.939C33.8404 26.939 37.223 25.3517 39.6064 22.8157C41.4189 24.8312 43.9598 25.9706 46.7074 25.9706C47.7767 25.9706 48.8226 25.7959 49.823 25.4514L53.1883 29.0407C53.3311 29.1932 53.5279 29.2745 53.7273 29.2745C53.8429 29.2745 53.9598 29.2474 54.0681 29.1908C54.3622 29.0382 54.5172 28.7072 54.4496 28.3836L53.3692 23.2698C55.2211 21.4721 56.2743 18.9951 56.2743 16.405C56.2743 11.13 51.9825 6.83809 46.7074 6.83809C44.9688 6.83809 43.2978 7.29951 41.8249 8.17807C39.6987 3.83943 35.2382 0.845703 30.0912 0.845703C24.0287 0.845703 18.9198 4.9973 17.458 10.6046C15.6603 8.5632 13.0873 7.38441 10.2954 7.38441C5.02039 7.38441 0.728516 11.6763 0.728516 16.9513C0.728516 22.2263 5.01916 26.517 10.2942 26.517ZM46.7062 8.31219C51.1667 8.31219 54.7965 11.9421 54.7965 16.4025C54.7965 18.7158 53.8023 20.9233 52.0698 22.4589C51.8717 22.6348 51.7819 22.9043 51.8373 23.1639L52.4574 26.1023L50.5625 24.0806C50.3533 23.8579 50.0297 23.7866 49.7467 23.901C48.7808 24.2935 47.757 24.4916 46.7062 24.4916C44.313 24.4916 42.1055 23.4679 40.5662 21.6677C42.1855 19.4947 43.1452 16.8024 43.1452 13.8911C43.1452 12.3703 42.8831 10.9097 42.402 9.55127C43.6891 8.73916 45.1657 8.31219 46.7062 8.31219ZM30.0912 2.32227C36.4749 2.32227 41.6687 7.51238 41.6687 13.8911C41.6687 20.2711 36.4749 25.46 30.0912 25.46C28.5925 25.46 27.1344 25.177 25.755 24.6208C25.4462 24.4953 25.1004 24.5962 24.9011 24.8485L21.569 28.3996L22.6346 23.3448C22.7268 23.0704 22.6505 22.7579 22.4229 22.5573C19.9386 20.3609 18.5137 17.2023 18.5137 13.8899C18.5137 7.51238 23.7075 2.32227 30.0912 2.32227ZM10.2942 8.85975C13.0775 8.85975 15.6049 10.2453 17.1024 12.5782C17.0593 13.0101 17.0371 13.4482 17.0371 13.8911C17.0371 15.6876 17.4087 17.4435 18.1064 19.0579C17.6942 20.591 16.8477 21.9569 15.6455 23.0175C15.4462 23.1935 15.3563 23.4629 15.4117 23.7238L16.0294 26.6499L14.1394 24.6331C13.9302 24.4104 13.6066 24.339 13.3248 24.4535C12.3614 24.8423 11.3425 25.0404 10.2966 25.0404C5.83619 25.0404 2.20631 21.4105 2.20631 16.9501C2.20631 12.4896 5.83373 8.85975 10.2942 8.85975Z" fill="black"/>
</svg>
