<svg width="38" height="38" viewBox="0 0 38 38" fill="none" xmlns="http://www.w3.org/2000/svg">
<path d="M36.2188 18.4063H29.0462V15.3158H31.727C31.885 15.3158 32.0358 15.2534 32.1468 15.1418L33.554 13.734C33.7862 13.5019 33.7862 13.126 33.554 12.8945C33.3218 12.6623 32.9466 12.6623 32.7144 12.8945L31.4812 14.1283H29.0462V9.5475C29.0462 9.215 28.785 8.95375 28.4525 8.95375H23.8711V6.51938L25.1049 5.28556C25.3371 5.054 25.3371 4.67816 25.1049 4.446C24.8728 4.21384 24.4975 4.21384 24.2654 4.446L22.8576 5.85378C22.746 5.96541 22.6836 6.11622 22.6836 6.27356V8.95434H19.5938V1.78125C19.5938 1.4535 19.3283 1.1875 19 1.1875C18.6717 1.1875 18.4062 1.4535 18.4062 1.78125V8.95375H15.3164V6.27297C15.3164 6.11563 15.254 5.96422 15.1424 5.85319L13.7346 4.44541C13.5025 4.21325 13.1272 4.21325 12.8951 4.44541C12.6629 4.67756 12.6629 5.05341 12.8951 5.28497L14.1289 6.51878V8.95316H9.5475C9.215 8.95316 8.95375 9.21441 8.95375 9.54691V14.1277H6.51878L5.28497 12.8939C5.05281 12.6617 4.67756 12.6617 4.44541 12.8939C4.21325 13.126 4.21325 13.5019 4.44541 13.7334L5.85319 15.1412C5.96481 15.2528 6.11503 15.3152 6.27297 15.3152H8.95375V18.4057H1.78125C1.45291 18.4057 1.1875 18.6717 1.1875 18.9994C1.1875 19.3272 1.45291 19.5932 1.78125 19.5932H8.95375V22.6836H6.27297C6.11503 22.6836 5.96422 22.746 5.85319 22.8576L4.44541 24.2654C4.21325 24.4969 4.21325 24.8728 4.44541 25.1049C4.56119 25.2207 4.71319 25.2789 4.86519 25.2789C5.01719 25.2789 5.16919 25.2207 5.28497 25.1049L6.51878 23.8711H8.95375V28.4519C8.95375 28.7844 9.215 29.0457 9.5475 29.0457H14.1289V31.4806L12.8951 32.7144C12.6629 32.946 12.6629 33.3218 12.8951 33.554C13.0108 33.6698 13.1628 33.728 13.3148 33.728C13.4668 33.728 13.6188 33.6698 13.7346 33.554L15.1424 32.1462C15.254 32.0346 15.3164 31.8838 15.3164 31.7264V29.0457H18.4062V36.2182C18.4062 36.5459 18.6717 36.8119 19 36.8119C19.3283 36.8119 19.5938 36.5459 19.5938 36.2182V29.0457H22.6836V31.7264C22.6836 31.8838 22.746 32.0352 22.8576 32.1462L24.2654 33.554C24.3812 33.6698 24.5332 33.728 24.6852 33.728C24.8372 33.728 24.9892 33.6698 25.1049 33.554C25.3371 33.3218 25.3371 32.946 25.1049 32.7144L23.8711 31.4806V29.0457H28.4525C28.785 29.0457 29.0462 28.7844 29.0462 28.4519V23.8711H31.4812L32.7144 25.1049C32.8302 25.2207 32.9822 25.2789 33.1342 25.2789C33.2862 25.2789 33.4382 25.2207 33.554 25.1049C33.7862 24.8734 33.7862 24.4975 33.554 24.2654L32.1468 22.8576C32.0352 22.746 31.885 22.6836 31.727 22.6836H29.0462V19.5932H36.2188C36.5471 19.5932 36.8125 19.3272 36.8125 18.9994C36.8125 18.6717 36.5471 18.4063 36.2188 18.4063ZM16.0491 15.7403C16.0609 15.7225 16.0669 15.6988 16.0847 15.6809C16.1144 15.6334 16.15 15.5859 16.1916 15.5503C16.1975 15.5503 16.1975 15.5444 16.2034 15.5384C16.245 15.5028 16.2925 15.4731 16.34 15.4553C16.3816 15.4316 16.4231 15.4197 16.4647 15.4138C16.5597 15.39 16.6606 15.3959 16.7556 15.4256C16.7853 15.4316 16.8091 15.4434 16.8388 15.4553C16.8625 15.4672 16.8803 15.4791 16.9041 15.4909C16.91 15.4909 16.91 15.4969 16.9159 15.4969C16.9575 15.5266 16.9991 15.5622 17.0288 15.5978C17.0347 15.5978 17.0347 15.6038 17.0406 15.6097C17.0763 15.6513 17.1 15.6869 17.1237 15.7344V15.7403L17.1297 15.7581L19.095 19.9797C19.1009 19.9856 19.1009 19.9916 19.1009 19.9975L19.9975 21.9213C20.1341 22.2181 20.0034 22.5684 19.7066 22.705C19.6234 22.7466 19.5403 22.7644 19.4572 22.7644C19.2316 22.7644 19.0178 22.6338 18.9169 22.42L18.1747 20.8169H14.9981L14.2559 22.42C14.155 22.6338 13.9413 22.7644 13.7216 22.7644C13.6325 22.7644 13.5494 22.7466 13.4722 22.705C13.1694 22.5684 13.0447 22.2181 13.1813 21.9213L14.0778 19.9916L16.0491 15.7403ZM23.2334 15.4019C23.56 15.4019 23.8272 15.6631 23.8272 15.9956C23.8272 16.3222 23.56 16.5894 23.2334 16.5894H22.8356V21.5769H23.2334C23.56 21.5769 23.8272 21.8441 23.8272 22.1706C23.8272 22.4972 23.56 22.7644 23.2334 22.7644H21.2503C20.9237 22.7644 20.6566 22.4972 20.6566 22.1706C20.6566 21.8441 20.9237 21.5769 21.2503 21.5769H21.6481V16.5894H21.2503C20.9237 16.5894 20.6566 16.3222 20.6566 15.9956C20.6566 15.6631 20.9237 15.4019 21.2503 15.4019H23.2334Z" fill="#171717"/>
<path d="M16.5894 17.4028L15.5503 19.6294H17.6225L16.5894 17.4028Z" fill="#171717"/>
</svg>
