<svg width="139" height="132" viewBox="0 0 139 132" fill="none" xmlns="http://www.w3.org/2000/svg">
<circle cx="16.5" cy="74.5" r="16.5" fill="black"/>
<path fill-rule="evenodd" clip-rule="evenodd" d="M25.6128 67.6488C26.0327 68.0163 26.0708 68.6564 25.6973 69.0709L15.1834 80.7407C14.808 81.1574 14.1634 81.1839 13.755 80.7995L7.67096 75.0719C7.29154 74.7147 7.25522 74.1195 7.58075 73.7126C7.93995 73.2636 8.60886 73.2018 9.03635 73.5863L13.7567 77.8322C14.167 78.2012 14.7985 78.1682 15.1681 77.7585L24.2116 67.7316C24.5775 67.3258 25.2016 67.289 25.6128 67.6488Z" fill="white"/>
<path d="M24.0821 116.471C24.4704 124.429 28.1586 127.341 33.0115 128.118C35.1468 128.506 31.4586 128.312 105.223 128.894C110.464 128.894 114.541 124.429 114.541 119.188V116.859H125.412C129.682 116.859 133.176 113.365 133.176 109.094V93.7589C133.176 91.0412 131.623 88.5177 129.488 87.1589C129.876 84.4412 130.07 81.5295 129.488 78.6177C128.906 74.9295 127.353 71.8236 125.023 69.4942C122.694 67.1648 119.394 65.6118 116.094 65.4177C114.347 37.853 115.512 36.8824 113.376 34.3589C113.376 34.1648 113.376 33.7765 113.182 33.5824C109.106 27.7589 98.6233 19.0236 98.0409 18.8295C96.8762 17.4707 95.3233 16.6942 93.3821 16.6942C62.5174 16.8883 47.3762 16.5001 37.088 16.306C28.9351 14.5589 25.8292 18.4412 24.4704 26.4001C23.888 29.8942 24.4704 68.5236 24.4704 85.8001L24.2762 88.1295C23.888 97.6412 23.4998 106.959 24.0821 116.471ZM130.264 109.094C130.264 111.812 128.129 113.947 125.412 113.947H105.612C102.894 113.947 100.759 111.812 100.759 109.094V93.7589C100.759 91.0412 102.894 88.9059 105.612 88.9059H125.412C128.129 88.9059 130.264 91.0412 130.264 93.7589V109.094ZM126.576 86.1883C126.188 86.1883 125.8 85.9942 125.217 85.9942H105.612C105.029 85.9942 104.641 85.9942 104.059 86.1883C103.864 82.6942 103.864 79.006 105.223 75.7059C108.135 68.3295 117.259 66.0001 123.082 71.8236C126.964 75.5118 127.159 80.753 126.576 86.1883ZM108.523 32.806L100.564 34.9412C99.5939 35.1354 98.6233 34.3589 98.8174 33.1942L99.5939 24.2648C102.7 26.7883 105.806 29.7001 108.523 32.806ZM93.3821 19.606C95.1292 19.606 96.6821 21.1589 96.6821 23.1001C96.2939 27.1765 95.9056 32.0295 95.9056 33.0001C95.7115 34.7471 95.9057 36.3001 97.2645 37.4648C101.341 40.9589 108.523 35.3295 110.853 47.5589C112.406 55.5177 112.794 59.5942 113.182 65.806C107.941 66.7765 104.059 70.6589 102.506 74.5412C100.759 78.8118 100.953 83.2765 101.341 87.353C98.4292 89.2942 97.6527 92.0118 97.2645 95.506C96.6821 99.1942 97.2645 102.106 97.2645 105.794C97.4586 110.065 98.6233 114.918 102.7 116.277C103.67 116.665 104.641 116.859 105.612 116.859H111.823V119.188C111.823 122.877 108.912 125.982 105.417 125.982C35.7292 125.4 62.5174 125.594 36.5057 125.4C33.5939 125.4 31.2645 123.071 30.6821 119.965C30.488 119.382 30.6821 124.429 30.6821 26.206C30.6821 24.653 30.488 22.906 30.8762 21.5471C31.4586 19.2177 32.2351 18.8295 33.9821 19.0236C37.088 19.4118 64.6527 19.8001 93.3821 19.606Z" fill="black"/>
<path d="M115.705 96.6707C113.958 96.6707 112.6 98.0295 112.6 99.7765C112.6 101.135 113.376 102.3 114.735 102.688V107.153H116.482V102.882C117.841 102.494 118.811 101.329 118.811 99.9707C118.617 98.0295 117.258 96.6707 115.705 96.6707Z" fill="black"/>
<path d="M40.7756 49.112H83.6756C84.4521 49.112 85.2285 48.5296 85.2285 47.559C85.2285 46.5885 84.6462 46.0061 83.6756 46.0061H40.7756C39.9991 46.0061 39.2227 46.5885 39.2227 47.559C39.2227 48.5296 39.9991 49.112 40.7756 49.112Z" fill="black"/>
<path d="M39.2229 73.3766H87.1699C87.9464 73.3766 88.7229 72.7943 88.7229 71.8237C88.7229 70.8531 88.1405 70.2708 87.1699 70.2708H39.2229C38.4464 70.2708 37.6699 70.8531 37.6699 71.8237C37.6699 72.7943 38.4464 73.3766 39.2229 73.3766Z" fill="black"/>
<path d="M78.2412 92.2061H45.0471C44.2706 92.2061 43.4941 92.7884 43.4941 93.759C43.4941 94.7296 44.0765 95.3119 45.0471 95.3119H78.2412C79.0177 95.3119 79.7941 94.7296 79.7941 93.759C79.7941 92.7884 79.0177 92.2061 78.2412 92.2061Z" fill="black"/>
<path d="M78.0476 108.318H59.4123C58.6358 108.318 57.8594 108.9 57.8594 109.871C57.8594 110.841 58.4417 111.424 59.4123 111.424H78.0476C78.8241 111.424 79.6006 110.841 79.6006 109.871C79.6006 108.9 78.8241 108.318 78.0476 108.318Z" fill="black"/>
<path d="M13.2117 16.306C12.6293 17.0825 12.8234 17.859 13.5999 18.4413L18.8411 21.9355C19.4234 22.3237 20.394 22.1296 20.7822 21.5472C21.1705 20.9649 20.9764 19.9943 20.394 19.606L15.1528 15.9178C14.5705 15.5296 13.5999 15.7237 13.2117 16.306Z" fill="black"/>
<path d="M24.6642 16.1119C25.4407 15.7236 25.6348 14.753 25.2466 14.1707L18.8407 3.68834C18.4525 2.91187 17.4819 2.71775 16.8995 3.10598C16.123 3.49422 15.9289 4.46481 16.3172 5.04716L22.5289 15.5295C22.9172 16.306 23.8878 16.5001 24.6642 16.1119Z" fill="black"/>
<path d="M32.4298 14.1706C33.2063 14.1706 33.7886 13.3941 33.7886 12.6177L32.818 4.85296C32.818 4.07649 32.0415 3.49414 31.2651 3.49414C30.4886 3.49414 29.9062 4.27061 29.9062 5.04708L30.8768 12.8118C30.8768 13.7824 31.6533 14.3647 32.4298 14.1706Z" fill="black"/>
</svg>
