<svg width="63" height="63" viewBox="0 0 63 63" fill="none" xmlns="http://www.w3.org/2000/svg">
<g clip-path="url(#clip0_256_93)">
<path d="M32.9457 39.2371C31.0219 38.4404 28.8081 39.3572 28.0112 41.2811C27.2142 43.2049 28.1311 45.4185 30.055 46.2156C30.521 46.4085 31.0107 46.5051 31.5003 46.5051C31.9899 46.5051 32.4795 46.4085 32.9455 46.2156C33.8776 45.8295 34.6035 45.1036 34.9894 44.1717C35.7864 42.2477 34.8694 40.0342 32.9456 39.2371H32.9457ZM33.6254 43.6066C33.3903 44.1743 32.9482 44.6164 32.3806 44.8514C31.813 45.0865 31.1878 45.0865 30.62 44.8514C29.4484 44.366 28.8899 43.0177 29.3753 41.8461C29.7418 40.9613 30.6003 40.4261 31.5035 40.4261C31.7962 40.4261 32.0939 40.4825 32.3807 40.6012C33.5523 41.0865 34.1109 42.4347 33.6254 43.6065V43.6066Z" fill="black"/>
<path d="M51.5182 36.8755L49.7923 32.7088C49.3683 31.6849 48.2414 31.1296 47.1712 31.4174L42.6989 32.6195C42.3526 32.2349 41.9874 31.8689 41.6077 31.5256L42.8091 27.0554C43.0969 25.9853 42.5418 24.8584 41.5179 24.4343L37.3513 22.7083C36.3275 22.2843 35.1382 22.6884 34.5848 23.6486L32.2734 27.6591C31.762 27.6332 31.2452 27.634 30.7283 27.6609L28.4159 23.6485C27.8625 22.6884 26.673 22.2843 25.6494 22.7082L21.4827 24.434C20.4588 24.8582 19.9036 25.985 20.1914 27.0552L21.3934 31.5276C21.0088 31.8738 20.6427 32.239 20.2993 32.6187L15.8293 31.4172C14.759 31.13 13.6323 31.6847 13.2081 32.7084L11.4821 36.8752C11.0581 37.8989 11.4623 39.0883 12.4225 39.6416L16.4329 41.9531C16.4072 42.4643 16.4078 42.9812 16.4349 43.4982L12.4225 45.8106C11.4622 46.3639 11.0581 47.5533 11.4823 48.5771L13.208 52.7438C13.6319 53.7675 14.7584 54.3226 15.8291 54.0352L20.3015 52.8331C20.6478 53.2178 21.0127 53.5837 21.3926 53.927L20.191 58.3973C19.9035 59.4676 20.4587 60.5943 21.4824 61.0184L25.649 62.7444C26.6724 63.1683 27.862 62.7644 28.4155 61.8041L30.7269 57.7936C31.2382 57.8193 31.7551 57.8187 32.2721 57.7917L34.5844 61.804C34.9896 62.5071 35.7357 62.9121 36.5083 62.9121C36.7908 62.9121 37.0768 62.858 37.351 62.7444L41.5178 61.0186C42.5416 60.5944 43.0968 59.4676 42.809 58.3974L41.6071 53.925C41.9917 53.5787 42.3577 53.2136 42.701 52.8339L47.1712 54.0354C48.2418 54.3231 49.3683 53.7679 49.7923 52.744L51.5183 48.5773C51.9423 47.5534 51.5381 46.3641 50.5779 45.8108L46.5675 43.4994C46.5933 42.9879 46.5927 42.471 46.5656 41.9543L50.5779 39.6419C51.5381 39.0885 51.9423 37.8993 51.5183 36.8754L51.5182 36.8755ZM49.8405 38.3627L45.4291 40.9051C45.1811 41.0479 45.0381 41.3211 45.062 41.6061C45.1248 42.3569 45.1256 43.1113 45.0645 43.8485C45.0408 44.1333 45.1839 44.4064 45.4315 44.5491L49.8404 47.0902C50.1606 47.2746 50.2952 47.6711 50.1539 48.0124L48.428 52.179C48.2867 52.5203 47.9114 52.7056 47.5542 52.6095L42.64 51.2886C42.364 51.2143 42.0698 51.3064 41.8848 51.5245C41.407 52.0887 40.873 52.6216 40.2976 53.1084C40.0792 53.2931 39.9873 53.5874 40.0615 53.8636L41.3829 58.7808C41.4788 59.1376 41.2937 59.5132 40.9525 59.6545L36.7858 61.3803C36.4444 61.5217 36.0481 61.3871 35.8636 61.0669L33.3212 56.6554C33.1887 56.4255 32.9441 56.2858 32.6819 56.2858C32.6613 56.2858 32.6408 56.2867 32.6202 56.2884C31.8689 56.3512 31.1144 56.352 30.3778 56.2909C30.0934 56.2674 29.8199 56.4102 29.6772 56.6579L27.1362 61.0668C26.9517 61.3868 26.5554 61.5215 26.2139 61.3802L22.0473 59.6542C21.7062 59.513 21.5212 59.1373 21.6169 58.7805L22.9377 53.8662C23.012 53.5901 22.92 53.296 22.7019 53.1112C22.1378 52.6334 21.6048 52.0993 21.1182 51.5239C20.9335 51.3055 20.6392 51.2135 20.3628 51.2877L15.4456 52.6092C15.0889 52.7053 14.7134 52.52 14.5719 52.1788L12.8461 48.0119C12.7047 47.6707 12.8395 47.2742 13.1595 47.0899L17.5711 44.5475C17.8191 44.4047 17.962 44.1315 17.9382 43.8464C17.8754 43.0952 17.8746 42.3407 17.9356 41.604C17.9592 41.3191 17.8161 41.0461 17.5685 40.9034L13.1596 38.3623C12.8395 38.1777 12.7049 37.7814 12.8461 37.4402L14.5721 33.2735C14.7135 32.9324 15.0891 32.7472 15.4459 32.843L20.3601 34.164C20.6363 34.2383 20.9304 34.1462 21.1152 33.9281C21.5929 33.364 22.1271 32.8311 22.7025 32.3442C22.9208 32.1595 23.0129 31.8652 22.9387 31.589L21.6171 26.6718C21.5213 26.315 21.7064 25.9394 22.0476 25.7981L26.2144 24.0723C26.5554 23.931 26.9521 24.0656 27.1365 24.3857L29.6789 28.7971C29.8219 29.045 30.0957 29.189 30.3799 29.1642C31.1309 29.1016 31.8854 29.1006 32.6222 29.1617C32.9079 29.1855 33.1801 29.0424 33.3228 28.7947L35.8639 24.3858C36.0483 24.0657 36.4448 23.931 36.7861 24.0724L40.9527 25.7984C41.2939 25.9396 41.479 26.3153 41.3832 26.672L40.0624 31.5864C39.988 31.8625 40.0801 32.1566 40.2981 32.3414C40.8623 32.8192 41.3952 33.3533 41.882 33.9287C42.0668 34.1471 42.3614 34.2393 42.6374 34.1648L47.5544 32.8433C47.9103 32.7473 48.2866 32.9324 48.4282 33.2737L50.1541 37.4404C50.2953 37.7817 50.1606 38.1782 49.8405 38.3627Z" fill="black"/>
<path d="M39.4971 39.0903C39.9048 39.0903 40.2354 38.7598 40.2354 38.3521C40.2354 37.9443 39.9048 37.6138 39.4971 37.6138C39.0893 37.6138 38.7588 37.9443 38.7588 38.3521C38.7588 38.7598 39.0893 39.0903 39.4971 39.0903Z" fill="black"/>
<path d="M40.3446 40.4117C39.9431 40.4832 39.6756 40.8665 39.7471 41.2679C40.0269 42.8409 39.8512 44.4537 39.2388 45.932C38.3825 47.9992 36.7725 49.6093 34.7053 50.4655C32.638 51.3218 30.361 51.3218 28.2938 50.4655C26.2266 49.6093 24.6165 47.9992 23.7603 45.932C22.9041 43.8648 22.9041 41.5878 23.7603 39.5205C24.6165 37.4533 26.2266 35.8433 28.2938 34.987C30.3611 34.1307 32.6381 34.1307 34.7053 34.987C35.6233 35.3672 36.456 35.8986 37.1798 36.5664C37.4795 36.8429 37.9465 36.8238 38.2231 36.5243C38.4996 36.2246 38.4807 35.7575 38.181 35.481C37.3288 34.695 36.3496 34.0697 35.2703 33.6226C32.8388 32.6154 30.1605 32.6154 27.7288 33.6226C25.2971 34.6299 23.4033 36.5237 22.3962 38.9552C21.3888 41.3869 21.3888 44.0651 22.3962 46.4968C23.4033 48.9284 25.2971 50.8222 27.7288 51.8295C28.9447 52.3331 30.2221 52.585 31.4997 52.5849C32.777 52.5849 34.0547 52.3331 35.2704 51.8295C37.7021 50.8222 39.5959 48.9284 40.603 46.4969C41.3235 44.7578 41.5302 42.86 41.2009 41.0091C41.1294 40.6078 40.7468 40.34 40.3448 40.4116L40.3446 40.4117Z" fill="black"/>
<path d="M24.5031 11.2722H30.7617V17.0616C29.903 17.3666 29.2851 18.1851 29.2851 19.1472C29.2851 20.3684 30.2787 21.362 31.5 21.362C32.7212 21.362 33.7148 20.3684 33.7148 19.1472C33.7148 18.1851 33.097 17.3666 32.2383 17.0616V11.2722H38.4969C39.7182 11.2722 40.7118 10.2786 40.7118 9.05736V2.70703C40.7118 1.48579 39.7182 0.492188 38.4969 0.492188H24.5029C23.2817 0.492188 22.2881 1.48579 22.2881 2.70703V9.05736C22.2881 10.2786 23.2817 11.2722 24.5029 11.2722H24.5031ZM31.5 19.8855C31.0928 19.8855 30.7617 19.5544 30.7617 19.1472C30.7617 18.74 31.0928 18.4089 31.5 18.4089C31.9072 18.4089 32.2383 18.74 32.2383 19.1472C32.2383 19.5544 31.9072 19.8855 31.5 19.8855ZM23.7648 2.70703C23.7648 2.29987 24.0959 1.96875 24.5031 1.96875H38.497C38.9042 1.96875 39.2353 2.29987 39.2353 2.70703V9.05736C39.2353 9.46452 38.9042 9.79564 38.497 9.79564H24.5031C24.0959 9.79564 23.7648 9.46452 23.7648 9.05736V2.70703Z" fill="black"/>
<path d="M60.2927 11.6414H46.2988C45.0776 11.6414 44.084 12.635 44.084 13.8562V20.2064C44.084 21.4276 45.0776 22.4212 46.2988 22.4212H57.7997V29.5625L55.3457 32.0164C55.0567 31.878 54.7346 31.7982 54.3932 31.7982C53.172 31.7982 52.1784 32.7918 52.1784 34.013C52.1784 35.2342 53.172 36.2278 54.3932 36.2278C55.6145 36.2278 56.6081 35.2342 56.6081 34.013C56.6081 33.6717 56.5282 33.3495 56.3898 33.0605L59.0599 30.3904C59.1984 30.2519 59.2762 30.0642 59.2762 29.8683V22.4212H60.2927C61.5139 22.4212 62.5075 21.4276 62.5075 20.2064V13.8562C62.5075 12.635 61.5139 11.6414 60.2927 11.6414ZM54.3933 34.7513C53.9862 34.7513 53.6551 34.4202 53.6551 34.013C53.6551 33.6058 53.9862 33.2747 54.3933 33.2747C54.8005 33.2747 55.1316 33.6058 55.1316 34.013C55.1316 34.4202 54.8005 34.7513 54.3933 34.7513ZM61.031 20.2064C61.031 20.6136 60.6999 20.9447 60.2927 20.9447H46.2988C45.8917 20.9447 45.5605 20.6136 45.5605 20.2064V13.8562C45.5605 13.449 45.8917 13.1179 46.2988 13.1179H60.2927C60.6999 13.1179 61.031 13.449 61.031 13.8562V20.2064Z" fill="black"/>
<path d="M8.60639 31.7982C8.26518 31.7982 7.94292 31.878 7.65388 32.0164L5.19996 29.5625V22.4212H16.7008C17.922 22.4212 18.9156 21.4276 18.9156 20.2064V13.8562C18.9156 12.635 17.922 11.6414 16.7008 11.6414H2.70703C1.48579 11.6414 0.492188 12.635 0.492188 13.8562V20.2064C0.492188 21.4276 1.48579 22.4212 2.70703 22.4212H3.72352V29.8683C3.72352 30.0641 3.80129 30.2518 3.93984 30.3904L6.60996 33.0605C6.47153 33.3495 6.39167 33.6717 6.39167 34.013C6.39167 35.2342 7.38527 36.2278 8.60651 36.2278C9.82775 36.2278 10.8214 35.2342 10.8214 34.013C10.8214 32.7918 9.82763 31.7982 8.60639 31.7982ZM1.96875 20.2064V13.8562C1.96875 13.449 2.29987 13.1179 2.70703 13.1179H16.7009C17.1081 13.1179 17.4392 13.449 17.4392 13.8562V20.2064C17.4392 20.6136 17.1081 20.9447 16.7009 20.9447H2.70703C2.29987 20.9447 1.96875 20.6136 1.96875 20.2064ZM8.60639 34.7513C8.19923 34.7513 7.86811 34.4202 7.86811 34.013C7.86811 33.6058 8.19923 33.2747 8.60639 33.2747C9.01355 33.2747 9.34467 33.6058 9.34467 34.013C9.34467 34.4202 9.01355 34.7513 8.60639 34.7513Z" fill="black"/>
</g>
<defs>
<clipPath id="clip0_256_93">
<rect width="63" height="63" fill="white"/>
</clipPath>
</defs>
</svg>
