<svg width="43" height="43" viewBox="0 0 43 43" fill="none" xmlns="http://www.w3.org/2000/svg">
<path d="M21.5 0C13.1644 0 6.38281 6.78157 6.38281 15.1172C6.38281 17.9335 7.16294 20.682 8.63939 23.0665L20.6395 42.4045C20.8694 42.7749 21.2743 43 21.7099 43C21.7132 43 21.7165 43 21.7199 43C22.1592 42.9966 22.565 42.7645 22.7907 42.3876L34.4849 22.8622C35.8799 20.5281 36.6172 17.85 36.6172 15.1172C36.6172 6.78157 29.8356 0 21.5 0ZM32.3227 21.5687L21.6908 39.3203L10.7808 21.739C9.55188 19.7543 8.88555 17.4646 8.88555 15.1172C8.88555 8.17084 14.5537 2.50273 21.5 2.50273C28.4463 2.50273 34.1061 8.17084 34.1061 15.1172C34.1061 17.3949 33.4836 19.6261 32.3227 21.5687Z" fill="white"/>
<path d="M21.5 7.55859C17.3322 7.55859 13.9414 10.9494 13.9414 15.1172C13.9414 19.2584 17.277 22.6758 21.5 22.6758C25.7751 22.6758 29.0586 19.2129 29.0586 15.1172C29.0586 10.9494 25.6678 7.55859 21.5 7.55859ZM21.5 20.173C18.7069 20.173 16.4441 17.9027 16.4441 15.1172C16.4441 12.3386 18.7215 10.0613 21.5 10.0613C24.2785 10.0613 26.5475 12.3386 26.5475 15.1172C26.5475 17.862 24.3373 20.173 21.5 20.173Z" fill="white"/>
</svg>
