<svg width="181" height="98" viewBox="0 0 181 98" fill="none" xmlns="http://www.w3.org/2000/svg">
<circle cx="49" cy="49" r="49" fill="#F2DFDF"/>
<g clip-path="url(#clip0_2322_56)">
<path d="M30.196 61.1962C30.196 72.1161 39.08 81 49.9998 81C60.9195 81 69.8037 72.1161 69.8037 61.1962C69.8037 50.2763 60.9197 41.3924 49.9998 41.3924C39.0799 41.3924 30.196 50.2763 30.196 61.1962ZM38.3168 74.7031C39.2462 72.366 40.8577 70.3629 42.9414 68.9545C45.0252 67.5461 47.4847 66.7976 49.9998 66.8066C52.5104 66.817 54.9613 67.5732 57.0413 68.9793C59.1212 70.3854 60.7364 72.3778 61.6817 74.7037C58.4389 77.5151 54.291 79.0628 49.9991 79.0627C45.7073 79.0625 41.5595 77.5147 38.3168 74.7031ZM44.2625 58.6282C44.2624 57.4933 44.5988 56.3839 45.2293 55.4402C45.8597 54.4966 46.7558 53.7611 47.8043 53.3267C48.8528 52.8924 50.0065 52.7787 51.1195 53.0001C52.2326 53.2215 53.255 53.768 54.0575 54.5704C54.86 55.3729 55.4065 56.3953 55.6278 57.5084C55.8492 58.6215 55.7355 59.7752 55.3012 60.8237C54.8669 61.8721 54.1314 62.7682 53.1877 63.3987C52.2441 64.0291 51.1347 64.3656 49.9998 64.3655C48.4786 64.3637 47.0202 63.7587 45.9446 62.683C44.8689 61.6074 44.2639 60.149 44.2621 58.6278L44.2625 58.6282ZM49.9998 43.3299C59.8514 43.3299 67.8662 51.3446 67.8662 61.1962C67.8697 65.6642 66.1925 69.97 63.1678 73.2585C62.2667 71.3267 60.952 69.6167 59.3167 68.2495C57.6814 66.8824 55.7655 65.8914 53.7047 65.3469C55.1958 64.5251 56.3714 63.2308 57.0463 61.6676C57.7213 60.1045 57.8573 58.3613 57.433 56.7124C57.0087 55.0635 56.0481 53.6024 54.7025 52.5592C53.3569 51.516 51.7026 50.9499 50 50.9499C48.2973 50.9499 46.643 51.516 45.2974 52.5592C43.9518 53.6024 42.9913 55.0635 42.567 56.7124C42.1426 58.3613 42.2787 60.1045 42.9536 61.6676C43.6286 63.2308 44.8041 64.5251 46.2953 65.3469C44.2344 65.8913 42.3185 66.8823 40.6833 68.2497C39.0482 69.6171 37.7338 71.3275 36.8334 73.2596C33.808 69.9711 32.1303 65.6648 32.1337 61.1963C32.1335 51.3441 40.1483 43.3299 49.9998 43.3299ZM59.4101 25.8369C59.3469 25.6424 59.2237 25.4729 59.0582 25.3526C58.8927 25.2324 58.6934 25.1677 58.4888 25.1677H58.4869L52.6995 25.1787L50.9217 19.6711C50.8587 19.4761 50.7356 19.3061 50.5699 19.1855C50.4043 19.065 50.2047 19 49.9998 19C49.7949 19 49.5953 19.065 49.4296 19.1855C49.264 19.3061 49.1409 19.4761 49.0779 19.6711L47.3001 25.1787L41.5127 25.1677H41.5111C41.3064 25.1677 41.1069 25.2326 40.9414 25.353C40.7758 25.4734 40.6527 25.6432 40.5896 25.838C40.5265 26.0327 40.5268 26.2425 40.5903 26.4371C40.6539 26.6317 40.7775 26.8012 40.9433 26.9212L45.6319 30.3139L43.833 35.8146C43.7693 36.0093 43.769 36.2192 43.8321 36.4142C43.8952 36.6091 44.0185 36.779 44.1843 36.8994C44.3501 37.0198 44.5497 37.0846 44.7546 37.0844C44.9595 37.0843 45.1591 37.0191 45.3246 36.8984L49.9998 33.4876L54.6753 36.8984C54.8409 37.0191 55.0404 37.0843 55.2453 37.0844C55.4502 37.0846 55.6499 37.0198 55.8156 36.8994C55.9814 36.779 56.1047 36.6091 56.1678 36.4142C56.231 36.2192 56.2307 36.0093 56.167 35.8146L54.368 30.3139L59.0566 26.9212C59.2227 26.8011 59.3463 26.6314 59.4098 26.4366C59.4733 26.2418 59.4734 26.0318 59.4101 25.8369ZM52.6596 29.1585C52.4934 29.2789 52.3696 29.4489 52.3062 29.644C52.2428 29.8392 52.2431 30.0495 52.3069 30.2445L53.3926 33.5644L50.5711 31.5058C50.4053 31.3849 50.2054 31.3197 50.0002 31.3197C49.7949 31.3197 49.595 31.3849 49.4292 31.5058L46.6077 33.5644L47.6934 30.2445C47.7572 30.0495 47.7575 29.8392 47.6941 29.644C47.6307 29.4489 47.5069 29.2789 47.3407 29.1585L44.5101 27.1108L48.0031 27.1176H48.0049C48.2098 27.1176 48.4094 27.0526 48.5751 26.932C48.7407 26.8114 48.8638 26.6414 48.9268 26.4464L49.9998 23.1223L51.0728 26.4464C51.1357 26.6414 51.2589 26.8114 51.4245 26.932C51.5902 27.0526 51.7898 27.1176 51.9947 27.1176H51.9965L55.4895 27.1108L52.6596 29.1585ZM25.353 37.9173L25.1747 43.7019C25.1684 43.9067 25.2272 44.1082 25.3426 44.2775C25.458 44.4468 25.6242 44.5751 25.8171 44.6441C26.0101 44.713 26.2199 44.719 26.4165 44.6611C26.6131 44.6033 26.7862 44.4846 26.9111 44.3221L30.4378 39.7335L35.8841 41.6907C36.0769 41.7598 36.2867 41.7661 36.4833 41.7086C36.6799 41.6511 36.8532 41.5328 36.9783 41.3706C37.1035 41.2084 37.174 41.0108 37.1797 40.806C37.1855 40.6012 37.1261 40.3999 37.0103 40.231L33.7362 35.4588L37.2806 30.8838C37.4061 30.7218 37.477 30.5242 37.4831 30.3194C37.4892 30.1146 37.4302 29.9131 37.3146 29.7439C37.1991 29.5748 37.0328 29.4466 36.8398 29.3778C36.6467 29.3091 36.4369 29.3033 36.2404 29.3614L30.6898 31.0004L27.4338 26.216C27.3186 26.0466 27.1525 25.9182 26.9597 25.8491C26.7668 25.78 26.557 25.7739 26.3604 25.8315C26.1638 25.8892 25.9906 26.0077 25.8656 26.17C25.7406 26.3323 25.6702 26.5301 25.6647 26.7349L25.5086 32.5201L19.9518 34.138C19.7551 34.1953 19.5816 34.3135 19.4563 34.4756C19.3309 34.6377 19.2602 34.8354 19.2543 35.0402C19.2484 35.245 19.3076 35.4464 19.4233 35.6155C19.5391 35.7845 19.7055 35.9125 19.8985 35.9811L25.353 37.9173ZM26.7291 34.1827C26.9261 34.1254 27.0999 34.0069 27.2252 33.8444C27.3506 33.682 27.4212 33.4839 27.4267 33.2788L27.5209 29.7871L29.486 32.6749C29.6015 32.8445 29.7678 32.9732 29.9611 33.0422C30.1543 33.1112 30.3645 33.1171 30.5613 33.059L33.9113 32.0696L31.772 34.8306C31.6463 34.9928 31.5754 35.1908 31.5694 35.3959C31.5635 35.601 31.6229 35.8028 31.739 35.972L33.7152 38.8522L30.428 37.6709C30.2349 37.6015 30.0247 37.5953 29.8277 37.653C29.6308 37.7108 29.4573 37.8296 29.3322 37.9923L27.2038 40.7617L27.3113 37.2704C27.3176 37.0653 27.2586 36.8634 27.1428 36.694C27.0271 36.5246 26.8605 36.3963 26.6671 36.3277L23.3749 35.1592L26.7291 34.1827ZM80.0482 34.138L74.491 32.5201L74.3349 26.7349C74.3293 26.5301 74.259 26.3323 74.134 26.17C74.009 26.0077 73.8357 25.8892 73.6392 25.8315C73.4426 25.7739 73.2328 25.78 73.0399 25.8491C72.847 25.9182 72.681 26.0466 72.5657 26.216L69.3098 31.0004L63.7594 29.3614C63.5629 29.3033 63.3531 29.3091 63.16 29.3778C62.967 29.4466 62.8008 29.5748 62.6852 29.7439C62.5696 29.9131 62.5106 30.1146 62.5167 30.3194C62.5228 30.5242 62.5937 30.7218 62.7192 30.8838L66.2636 35.4588L62.9895 40.231C62.8737 40.3999 62.8144 40.6012 62.8201 40.806C62.8259 41.0108 62.8964 41.2084 63.0215 41.3706C63.1466 41.5328 63.3199 41.6511 63.5165 41.7086C63.7131 41.7661 63.9229 41.7598 64.1157 41.6907L69.562 39.7335L73.0887 44.3221C73.2136 44.4846 73.3868 44.6033 73.5833 44.6611C73.7799 44.719 73.9897 44.713 74.1827 44.6441C74.3756 44.5751 74.5418 44.4468 74.6572 44.2775C74.7726 44.1082 74.8314 43.9067 74.8251 43.7019L74.6468 37.9173L80.1008 35.9811C80.2939 35.9125 80.4603 35.7845 80.576 35.6155C80.6918 35.4464 80.7509 35.245 80.745 35.0402C80.7391 34.8354 80.6684 34.6377 80.5431 34.4756C80.4177 34.3135 80.2442 34.1953 80.0475 34.138H80.0482ZM73.333 36.3285C73.1396 36.3972 72.973 36.5254 72.8572 36.6949C72.7414 36.8643 72.6825 37.0661 72.6888 37.2712L72.7963 40.7626L70.6678 37.9932C70.5428 37.8304 70.3693 37.7116 70.1723 37.6539C69.9754 37.5961 69.7652 37.6024 69.5721 37.6718L66.2848 38.8531L68.2611 35.9729C68.3772 35.8036 68.4366 35.6019 68.4306 35.3967C68.4247 35.1916 68.3537 34.9936 68.228 34.8314L66.0888 32.0705L69.4387 33.0598C69.6355 33.1179 69.8457 33.1121 70.039 33.043C70.2323 32.974 70.3986 32.8454 70.514 32.6757L72.4791 29.788L72.5734 33.2796C72.5789 33.4847 72.6495 33.6828 72.7748 33.8453C72.9002 34.0078 73.0739 34.1262 73.271 34.1836L76.6247 35.1601L73.333 36.3285Z" fill="black"/>
</g>
<rect x="82" y="49.5012" width="93" height="33" rx="16.5" transform="rotate(-16.5564 82 49.5012)" fill="#DDF4CB"/>
<path d="M111.889 63.5671L109.732 64.2082L110.343 51.8869L112.838 51.1454L120.086 61.1303L117.929 61.7715L112.314 53.7906L112.227 53.8166L111.889 63.5671ZM110.66 59.1727L116.542 57.4241L117.024 59.047L111.142 60.7957L110.66 59.1727ZM124.911 59.8738C124.076 60.122 123.304 60.1519 122.596 59.9633C121.891 59.7736 121.282 59.4036 120.766 58.8534C120.254 58.2984 119.871 57.598 119.62 56.752C119.367 55.9024 119.308 55.1041 119.441 54.357C119.574 53.6063 119.884 52.9609 120.371 52.4208C120.861 51.876 121.515 51.4821 122.332 51.2393C123.011 51.0374 123.649 50.9841 124.246 51.0791C124.846 51.1695 125.37 51.3952 125.817 51.7563C126.263 52.1137 126.597 52.5872 126.82 53.177L124.936 53.7372C124.74 53.3569 124.458 53.075 124.092 52.8916C123.727 52.7034 123.308 52.6801 122.832 52.8215C122.429 52.9413 122.107 53.1555 121.867 53.464C121.626 53.7689 121.48 54.1482 121.429 54.6019C121.382 55.0546 121.442 55.5623 121.609 56.1251C121.778 56.6952 122.008 57.1605 122.297 57.5211C122.585 57.8781 122.912 58.1226 123.279 58.2545C123.649 58.3817 124.039 58.3843 124.449 58.2623C124.74 58.1759 124.983 58.0443 125.18 57.8674C125.379 57.6857 125.525 57.4664 125.618 57.2094C125.712 56.9524 125.743 56.6646 125.711 56.346L127.596 55.7858C127.724 56.3916 127.706 56.9681 127.541 57.5152C127.374 58.0586 127.07 58.5364 126.627 58.9485C126.184 59.357 125.611 59.6655 124.911 59.8738ZM131.755 48.5565L132.208 50.0814L127.399 51.5111L126.946 49.9861L131.755 48.5565ZM127.537 47.629L129.509 47.0429L131.844 54.8963C131.922 55.1614 132.023 55.3528 132.145 55.4707C132.269 55.5838 132.406 55.6459 132.556 55.6568C132.705 55.6677 132.862 55.6488 133.025 55.6002C133.148 55.5635 133.258 55.521 133.355 55.4726C133.455 55.4232 133.53 55.3831 133.58 55.3524L134.37 56.7949C134.276 56.8625 134.137 56.9472 133.954 57.0491C133.774 57.1499 133.546 57.2455 133.268 57.3358C132.779 57.4971 132.312 57.5549 131.868 57.5092C131.422 57.4598 131.032 57.2954 130.696 57.0159C130.363 56.7354 130.121 56.3331 129.969 55.8092L127.537 47.629ZM135.891 56.4317L133.404 48.0663L135.375 47.4802L137.862 55.8456L135.891 56.4317ZM134.042 46.5844C133.73 46.6772 133.43 46.6536 133.144 46.5135C132.856 46.3699 132.668 46.151 132.581 45.8569C132.493 45.5592 132.53 45.2734 132.694 44.9995C132.856 44.722 133.094 44.5368 133.406 44.444C133.722 44.3501 134.022 44.3755 134.306 44.5202C134.592 44.6603 134.78 44.8792 134.868 45.1769C134.956 45.471 134.918 45.7568 134.756 46.0343C134.596 46.3071 134.358 46.4904 134.042 46.5844ZM144.875 44.6561L144.383 53.9072L142.204 54.5548L136.738 47.075L138.841 46.4501L142.61 52.0927L142.698 52.0668L142.778 45.2795L144.875 44.6561ZM152.194 51.763C151.355 52.0123 150.579 52.0534 149.865 51.8861C149.154 51.7142 148.54 51.3555 148.022 50.81C147.503 50.2608 147.113 49.5487 146.853 48.6737C146.597 47.8132 146.536 47.0094 146.67 46.2624C146.806 45.5106 147.116 44.8652 147.6 44.3262C148.083 43.7835 148.724 43.3934 149.522 43.156C150.038 43.0027 150.549 42.9416 151.056 42.9726C151.566 42.9989 152.048 43.1322 152.503 43.3724C152.961 43.6115 153.372 43.9678 153.734 44.441C154.094 44.9107 154.384 45.5122 154.602 46.2457L154.782 46.8502L147.925 48.8886L147.53 47.5597L152.497 46.0831C152.381 45.7066 152.199 45.395 151.952 45.1484C151.704 44.8982 151.411 44.7304 151.073 44.645C150.739 44.5586 150.384 44.5715 150.006 44.6837C149.603 44.8035 149.278 45.0068 149.032 45.2935C148.784 45.5766 148.621 45.9015 148.545 46.2681C148.471 46.63 148.487 46.9985 148.595 47.3736L148.94 48.5336C149.084 49.0201 149.297 49.4112 149.579 49.7069C149.859 49.9989 150.187 50.1901 150.561 50.2802C150.935 50.3668 151.336 50.3464 151.764 50.219C152.051 50.1338 152.299 50.0166 152.507 49.8677C152.715 49.7151 152.88 49.5335 153.004 49.3231C153.127 49.1126 153.197 48.8764 153.214 48.6145L155.116 48.2742C155.145 48.7952 155.049 49.2859 154.831 49.7461C154.614 50.2016 154.283 50.6043 153.838 50.954C153.392 51.3001 152.844 51.5697 152.194 51.763Z" fill="black"/>
<defs>
<clipPath id="clip0_2322_56">
<rect width="62" height="62" fill="white" transform="translate(19 19)"/>
</clipPath>
</defs>
</svg>
