<svg width="185" height="185" viewBox="0 0 185 185" fill="none" xmlns="http://www.w3.org/2000/svg">
<g clip-path="url(#clip0_196_60)">
<path d="M31.2778 93.3745V48.3515C31.2778 46.9004 32.3304 45.6606 33.761 45.4187L43.1212 43.8587C47.6277 43.1059 52.083 42.1181 56.4702 40.8987" stroke="black" stroke-width="2" stroke-miterlimit="10" stroke-linecap="round" stroke-linejoin="round"/>
<path d="M67.7964 37.1719C75.2015 34.3516 82.3477 30.85 89.1363 26.6944L96.0952 22.4366C97.0456 21.8541 98.2446 21.8541 99.1949 22.4366L106.154 26.6944C120.249 35.3155 135.87 41.1435 152.168 43.8583L161.529 45.4184C162.959 45.6602 164.012 46.9001 164.012 48.3511V100.391" stroke="black" stroke-width="2" stroke-miterlimit="10" stroke-linecap="round" stroke-linejoin="round"/>
<path d="M159.64 130.219C153.649 148.033 141.753 163.591 125.505 174.043L99.4271 190.818C98.4499 191.446 97.1961 191.448 96.2174 190.822L69.9576 174.02C51.8566 162.439 39.1258 144.529 33.9102 124.208L33.3979 122.075" stroke="black" stroke-width="2" stroke-miterlimit="10" stroke-linecap="round" stroke-linejoin="round"/>
<path d="M152.43 100.392V87.6589" stroke="black" stroke-width="2" stroke-miterlimit="10" stroke-linecap="round" stroke-linejoin="round"/>
<path d="M42.8589 92.8534V55.6438L45.0252 55.2828C62.8704 52.3092 79.7448 46.0145 95.1784 36.5724L97.6445 35.0635L100.111 36.5724C115.544 46.0145 132.419 52.3092 150.264 55.2828L152.43 55.6438V75.7371" stroke="black" stroke-width="2" stroke-miterlimit="10" stroke-linecap="round" stroke-linejoin="round"/>
<path d="M45.8628 123.928L46.4623 125.877C47.8418 130.087 49.6062 134.174 51.7385 138.074C56.6878 147.111 63.5547 155.02 71.7773 161.192" stroke="black" stroke-width="2" stroke-miterlimit="10" stroke-linecap="round" stroke-linejoin="round"/>
<path d="M81.7607 167.824L97.8074 178.091L119.239 164.302C123.344 161.662 127.581 158.277 131.062 154.877" stroke="black" stroke-width="2" stroke-miterlimit="10" stroke-linecap="round" stroke-linejoin="round"/>
<path d="M147.551 129.587C146.421 132.513 145.099 135.368 143.592 138.129C142.583 139.977 140.051 143.964 138.153 146.524" stroke="black" stroke-width="2" stroke-miterlimit="10" stroke-linecap="round" stroke-linejoin="round"/>
<path d="M121.515 140.537H128.423C133.798 140.537 138.155 144.894 138.155 150.269C138.155 151.27 137.749 152.176 137.092 152.834C136.434 153.488 135.528 153.893 134.527 153.893H87.8448C85.3889 153.893 83.008 153.052 81.0971 151.509L45.7848 123.39C44.1294 122.072 42.0789 121.357 39.9636 121.357H13" stroke="black" stroke-width="2" stroke-miterlimit="10" stroke-linecap="round" stroke-linejoin="round"/>
<path d="M109.594 140.537H94.1328" stroke="black" stroke-width="2" stroke-miterlimit="10" stroke-linecap="round" stroke-linejoin="round"/>
<path d="M13 93.8381H55.0153C61.1023 93.8381 66.9371 96.2695 71.2228 100.592L99.0196 128.625C101.717 131.346 101.722 135.731 99.0305 138.458C96.3866 141.136 92.0968 141.24 89.3255 138.694L67.9069 119.01" stroke="black" stroke-width="2" stroke-miterlimit="10" stroke-linecap="round" stroke-linejoin="round"/>
<path d="M97.7501 82.291H63.4607C58.0864 82.291 53.7295 77.9341 53.7295 72.5598C53.7295 70.5576 55.3526 68.9346 57.3547 68.9346H104.038C106.493 68.9346 108.875 69.7759 110.786 71.3182L146.098 99.4383C147.752 100.755 149.805 101.473 151.919 101.473H182.289" stroke="black" stroke-width="2" stroke-miterlimit="10" stroke-linecap="round" stroke-linejoin="round"/>
<path d="M182.289 128.99H136.867C130.78 128.99 124.946 126.559 120.66 122.236L92.8635 94.2033C90.1658 91.4824 90.1607 87.0972 92.8526 84.3706C95.4965 81.6922 99.7863 81.5877 102.558 84.1345L123.976 103.818" stroke="black" stroke-width="2" stroke-miterlimit="10" stroke-linecap="round" stroke-linejoin="round"/>
</g>
<defs>
<clipPath id="clip0_196_60">
<rect width="185" height="185" fill="white"/>
</clipPath>
</defs>
</svg>
