<svg width="162" height="162" viewBox="0 0 162 162" fill="none" xmlns="http://www.w3.org/2000/svg">
<path d="M123.315 42.0216C115.952 19.0233 94.3991 2.37305 68.9565 2.37305C61.6985 2.37305 54.7581 3.73106 48.3721 6.20188" stroke="black" stroke-width="2" stroke-miterlimit="10" stroke-linecap="round" stroke-linejoin="round"/>
<path d="M38.8828 107.945C45.7748 112.227 53.6463 115.081 62.0839 116.094" stroke="black" stroke-width="2" stroke-miterlimit="10" stroke-linecap="round" stroke-linejoin="round"/>
<path d="M39.1802 10.7505C22.8122 20.7821 11.8911 38.8341 11.8911 59.4381C11.8911 72.2225 16.0952 84.0248 23.196 93.5385" stroke="black" stroke-width="2" stroke-miterlimit="10" stroke-linecap="round" stroke-linejoin="round"/>
<path d="M85.3203 36.1592C91.151 30.6085 98.9464 24.6733 109.308 19.0872" stroke="black" stroke-width="2" stroke-miterlimit="10" stroke-linecap="round" stroke-linejoin="round"/>
<path d="M68.9566 59.4384C68.9566 59.4384 46.1634 62.2063 16.002 38.1721" stroke="black" stroke-width="2" stroke-miterlimit="10" stroke-linecap="round" stroke-linejoin="round"/>
<path d="M37.0918 51.6787C37.0918 51.6787 51.4952 17.3996 77.1232 2.95752" stroke="black" stroke-width="2" stroke-miterlimit="10" stroke-linecap="round" stroke-linejoin="round"/>
<path d="M88.2324 33.5061C88.2324 33.5061 92.265 37.3871 96.2976 44.9284" stroke="black" stroke-width="2" stroke-miterlimit="10" stroke-linecap="round" stroke-linejoin="round"/>
<path d="M13.6431 72.2434C16.1886 74.1124 28.8568 82.9731 45.1748 86.7725" stroke="black" stroke-width="2" stroke-miterlimit="10" stroke-linecap="round" stroke-linejoin="round"/>
<path d="M22.3688 129.368C26.5033 119.418 37.7069 119.246 43.3794 119.859C45.1364 120.049 46.2448 121.843 45.6405 123.504L40.7678 136.891C38.8789 142.081 33.1165 144.742 27.9334 142.797C22.5868 140.791 20.1777 134.641 22.3688 129.368Z" stroke="black" stroke-width="2" stroke-miterlimit="10" stroke-linecap="round" stroke-linejoin="round"/>
<path d="M121.437 159.627L122.216 131.176C122.378 125.247 123.214 119.356 124.707 113.617L126.804 105.552" stroke="black" stroke-width="2" stroke-miterlimit="10" stroke-linecap="round" stroke-linejoin="round"/>
<path d="M129.409 95.5359L138.115 62.0611C139.078 58.3576 137.104 54.5215 133.53 53.1524C130.689 52.0636 127.619 52.817 125.594 54.7901" stroke="black" stroke-width="2" stroke-miterlimit="10" stroke-linecap="round" stroke-linejoin="round"/>
<path d="M116.653 84.0451L126.631 51.3992C127.94 47.1189 125.502 42.5936 121.208 41.3315C118.383 40.5009 115.455 41.2932 113.44 43.1771" stroke="black" stroke-width="2" stroke-miterlimit="10" stroke-linecap="round" stroke-linejoin="round"/>
<path d="M69.9328 159.627V131.214C69.9328 126.471 68.0264 121.928 64.6421 118.606L55.7847 109.909C54.4842 108.632 53.498 107.074 52.9016 105.353C51.7059 101.9 47.4094 90.6216 44.1387 82.9127C43.1157 80.5014 43.9406 77.7056 46.1099 76.2375C50.7313 73.1089 56.9959 74.1666 60.3343 78.6387L69.9328 91.4971V41.1379C69.9328 36.513 73.6819 32.7639 78.3068 32.7639C82.8118 32.7639 86.5093 36.3279 86.6751 40.8297L87.8477 72.6887C87.8942 73.9518 89.6955 74.1305 89.9894 72.9016C89.9894 72.9016 94.9877 51.0588 97.7841 38.8927C98.7912 34.5111 103.178 31.7928 107.55 32.8398C111.928 33.8881 114.604 38.3146 113.497 42.6785L104.14 79.5455" stroke="black" stroke-width="2" stroke-miterlimit="10" stroke-linecap="round" stroke-linejoin="round"/>
<path d="M69.9326 91.4966V99.3685" stroke="black" stroke-width="2" stroke-miterlimit="10" stroke-linecap="round" stroke-linejoin="round"/>
<path d="M136.043 3.17989C126.092 7.31437 125.92 18.518 126.534 24.1905C126.724 25.9475 128.518 27.0559 130.178 26.4516L143.565 21.5789C148.755 19.69 151.416 13.9276 149.471 8.74453C147.465 3.39821 141.316 0.989093 136.043 3.17989Z" stroke="black" stroke-width="2" stroke-miterlimit="10" stroke-linecap="round" stroke-linejoin="round"/>
<path d="M19.6059 94.8058C29.5655 90.6932 37.6094 98.4938 41.1864 102.939C42.2945 104.315 41.8097 106.368 40.2081 107.115L27.2965 113.136C22.291 115.47 16.3349 113.277 14.0451 108.236C11.6831 103.038 14.328 96.9855 19.6059 94.8058Z" stroke="black" stroke-width="2" stroke-miterlimit="10" stroke-linecap="round" stroke-linejoin="round"/>
</svg>
