<svg width="47" height="57" viewBox="0 0 47 57" fill="none" xmlns="http://www.w3.org/2000/svg">
<path d="M46.0004 50.4001L43.3004 44.6C43.3004 44.6 44.7004 41.3001 44.3004 39.9001C43.8004 37.8001 43.2004 34 41.6004 29.8C39.9004 25.4 38.9004 23.6 36.3004 23.6C35.6004 23.6 26.4004 25.7001 26.1004 25.7001C25.0004 25.7001 24.2004 25.2 23.9004 24.5C22.4004 21.2 19.6004 15.3 19.6004 15.3C19.6004 15.3 18.3004 13.3 16.6004 13.3C16.4004 13.3 16.1004 13.3 15.8004 13.4C13.7004 14.1 14.4004 17.1 14.4004 17.1L22.1004 39.2001C22.1004 39.2001 20.8004 39 19.1004 39C17.4004 39 15.3004 39.2001 13.3004 39.9001C9.30037 41.3001 9.00037 43.0001 9.50037 44.4001C9.70037 45.1001 10.4004 45.3 11.3004 45.3C22.1004 44.6 30.8004 48.7 31.1004 49C31.5004 49.4 34.1004 55.1 34.1004 55.1" stroke="black" stroke-width="2" stroke-miterlimit="10" stroke-linecap="round" stroke-linejoin="round"/>
<path d="M12.9008 23.9C10.1008 22.5 8.30078 19.6 8.30078 16.3C8.30078 11.6 12.1008 7.70001 16.9008 7.70001C21.7008 7.70001 25.5008 11.5 25.5008 16.3C25.5008 17.3 25.3008 18.3 25.0008 19.3" stroke="black" stroke-width="2" stroke-miterlimit="10" stroke-linecap="round" stroke-linejoin="round"/>
<path d="M15.7004 31.2C8.00039 30.6 1.90039 24.2 1.90039 16.3C1.90039 8.10002 8.60039 1.40002 16.8004 1.40002C25.0004 1.40002 31.8004 8.00002 31.8004 16.3C31.8004 17.9 31.6004 19.4 31.1004 20.8" stroke="black" stroke-width="2" stroke-miterlimit="10" stroke-linecap="round" stroke-linejoin="round"/>
</svg>
