<svg width="47" height="47" viewBox="0 0 47 47" fill="none" xmlns="http://www.w3.org/2000/svg">
<g clip-path="url(#clip0_242_111)">
<path d="M40.1458 43.0834H4.89583C2.19529 43.0834 0 40.8861 0 38.1875V10.7709C0 10.2304 0.438667 9.79169 0.979167 9.79169C1.51967 9.79169 1.95833 10.2304 1.95833 10.7709V38.1875C1.95833 39.8071 3.27629 41.125 4.89583 41.125H40.1458C40.6844 41.125 41.125 40.6864 41.125 40.1459V34.2709C41.125 33.7304 41.5637 33.2917 42.1042 33.2917C42.6447 33.2917 43.0833 33.7304 43.0833 34.2709V40.1459C43.0833 41.7654 41.7654 43.0834 40.1458 43.0834Z" fill="black"/>
<path d="M42.1042 23.5C41.5637 23.5 41.125 23.0613 41.125 22.5208V16.6458C41.125 16.1053 40.6844 15.6667 40.1458 15.6667H4.89583C3.57396 15.6667 2.34413 15.1516 1.43154 14.2155C0.515042 13.3225 0 12.0927 0 10.7708C0 8.07225 2.19529 5.875 4.89583 5.875H21.6396C22.1801 5.875 22.6188 6.31367 22.6188 6.85417C22.6188 7.39467 22.1801 7.83333 21.6396 7.83333H4.89583C3.27629 7.83333 1.95833 9.15129 1.95833 10.7708C1.95833 11.56 2.26383 12.2905 2.81608 12.831C3.37617 13.4028 4.10858 13.7083 4.89583 13.7083H40.1458C41.7654 13.7083 43.0833 15.0263 43.0833 16.6458V22.5208C43.0833 23.0613 42.6447 23.5 42.1042 23.5Z" fill="black"/>
<path d="M36.2293 15.6667C35.6888 15.6667 35.2501 15.228 35.2501 14.6875V8.8125C35.2501 8.272 34.8095 7.83333 34.2709 7.83333H30.6872C30.1467 7.83333 29.708 7.39467 29.708 6.85417C29.708 6.31367 30.1467 5.875 30.6872 5.875H34.2709C35.8905 5.875 37.2084 7.19296 37.2084 8.8125V14.6875C37.2084 15.228 36.7698 15.6667 36.2293 15.6667Z" fill="black"/>
<path d="M35.2501 15.6667C34.9133 15.6667 34.5862 15.4924 34.4041 15.181L28.0493 4.28681L9.31588 15.5276C8.85763 15.8057 8.2525 15.6569 7.97246 15.1908C7.69438 14.7286 7.84517 14.1255 8.30929 13.8474L27.8926 2.09739C28.1159 1.96227 28.3861 1.92702 28.6388 1.98773C28.8933 2.05235 29.1088 2.21685 29.2419 2.44206L36.0961 14.1921C36.3703 14.6601 36.2116 15.2594 35.7436 15.5316C35.5889 15.6236 35.4185 15.6667 35.2501 15.6667Z" fill="black"/>
<path d="M46.0208 35.25H36.2292C32.4496 35.25 29.375 32.1754 29.375 28.3959C29.375 24.6163 32.4496 21.5417 36.2292 21.5417H46.0208C46.5613 21.5417 47 21.9804 47 22.5209V34.2709C47 34.8114 46.5613 35.25 46.0208 35.25ZM36.2292 23.5C33.5286 23.5 31.3333 25.6973 31.3333 28.3959C31.3333 31.0944 33.5286 33.2917 36.2292 33.2917H45.0417V23.5H36.2292Z" fill="black"/>
<path d="M36.2295 31.3333C34.61 31.3333 33.292 30.0154 33.292 28.3958C33.292 26.7763 34.61 25.4583 36.2295 25.4583C37.849 25.4583 39.167 26.7763 39.167 28.3958C39.167 30.0154 37.849 31.3333 36.2295 31.3333ZM36.2295 27.4166C35.691 27.4166 35.2503 27.8553 35.2503 28.3958C35.2503 28.9363 35.691 29.375 36.2295 29.375C36.768 29.375 37.2087 28.9363 37.2087 28.3958C37.2087 27.8553 36.768 27.4166 36.2295 27.4166Z" fill="black"/>
</g>
<defs>
<clipPath id="clip0_242_111">
<rect width="47" height="47" fill="white"/>
</clipPath>
</defs>
</svg>
