<svg width="48" height="48" viewBox="0 0 48 48" fill="none" xmlns="http://www.w3.org/2000/svg">
<g clip-path="url(#clip0_2028_53)">
<g clip-path="url(#clip1_2028_53)">
<path d="M11.8851 38.6772H5.06836V33.2764C5.06836 32.8961 4.7602 32.5879 4.37988 32.5879C3.99957 32.5879 3.69141 32.8961 3.69141 33.2764V39.3657C3.69141 39.746 3.99957 40.0542 4.37988 40.0542H11.8851V38.6772Z" fill="#E1D3CE"/>
<path d="M42.6205 32.5879C42.2401 32.5879 41.932 32.8961 41.932 33.2764V38.6772H35.1152V40.0542H42.6205C43.0008 40.0542 43.3089 39.746 43.3089 39.3657V33.2764C43.3089 32.8961 43.0008 32.5879 42.6205 32.5879Z" fill="#E1D3CE"/>
<path d="M18.8428 30.0938H19.5312V27.5354C19.5312 27.1551 19.2231 26.8469 18.8428 26.8469C18.4625 26.8469 18.1543 27.1551 18.1543 27.5354V30.1281C18.3809 30.1057 18.6104 30.0938 18.8428 30.0938Z" fill="#B9ACAC"/>
<path d="M28.1592 30.0938C28.3915 30.0938 28.6211 30.1057 28.8477 30.1281V27.5354C28.8477 27.1551 28.5395 26.8469 28.1592 26.8469C27.7789 26.8469 27.4707 27.1551 27.4707 27.5354V30.0938H28.1592Z" fill="#B9ACAC"/>
<path d="M26.2514 0.949219H15.8187C15.2964 0.949219 14.873 1.37259 14.873 1.89491V21.5599C14.873 22.0822 15.2964 22.5056 15.8187 22.5056H31.1809C31.7033 22.5056 32.1266 22.0822 32.1266 21.5599V6.82449C32.1266 6.5737 32.027 6.33311 31.8497 6.15585L26.9201 1.22626C26.7428 1.04891 26.5022 0.949219 26.2514 0.949219Z" fill="#FFF0AD"/>
<path d="M31.8496 6.1557L30.0249 4.33105V18.9012C30.0249 19.4236 29.6016 19.8469 29.0793 19.8469H14.873V21.5599C14.873 22.0822 15.2964 22.5056 15.8187 22.5056H31.1809C31.7033 22.5056 32.1266 22.0822 32.1266 21.5599V6.82444C32.1266 6.57356 32.0269 6.33305 31.8496 6.1557Z" fill="#FFE177"/>
<path d="M27.5882 6.43271H32.1261L26.6426 0.949219V5.48711C26.6425 6.00925 27.0659 6.43271 27.5882 6.43271Z" fill="#FFE177"/>
<path d="M4.86533 20.2354H0.472846C0.211684 20.2354 0 20.447 0 20.7082V29.0319C0 29.293 0.211684 29.5047 0.472846 29.5047H6.94627C7.20743 29.5047 7.41912 29.293 7.41912 29.0319V22.7891C7.41912 22.6637 7.36927 22.5435 7.28059 22.4548L5.19965 20.3739C5.11098 20.2851 4.99072 20.2354 4.86533 20.2354Z" fill="#D8ECFE"/>
<path d="M44.4454 20.2354H40.0529C39.7918 20.2354 39.5801 20.447 39.5801 20.7082V29.0319C39.5801 29.293 39.7918 29.5047 40.0529 29.5047H46.5263C46.7875 29.5047 46.9992 29.293 46.9992 29.0319V22.7891C46.9992 22.6637 46.9493 22.5435 46.8607 22.4548L44.7797 20.3739C44.6911 20.2851 44.5708 20.2354 44.4454 20.2354Z" fill="#D8ECFE"/>
<path d="M46.8608 22.4548L44.9143 20.5083V26.9463C44.9143 27.2075 44.7026 27.4191 44.4415 27.4191H39.5801V29.0317C39.5801 29.2929 39.7918 29.5046 40.0529 29.5046H46.5263C46.7875 29.5046 46.9992 29.2929 46.9992 29.0317V22.7891C46.9993 22.6637 46.9494 22.5434 46.8608 22.4548Z" fill="#C4E2FF"/>
<path d="M7.28059 22.4548L5.33413 20.5083V26.9463C5.33413 27.2075 5.12245 27.4191 4.86129 27.4191H0V29.0317C0 29.2929 0.211684 29.5046 0.472846 29.5046H6.94627C7.20743 29.5046 7.41912 29.2929 7.41912 29.0317V22.7891C7.41912 22.6637 7.36927 22.5434 7.28059 22.4548Z" fill="#C4E2FF"/>
<path d="M28.1581 30.002H18.8423C14.949 30.002 11.793 33.158 11.793 37.0513V43.1049C11.793 43.6273 12.2163 44.0506 12.7387 44.0506H34.2617C34.784 44.0506 35.2074 43.6273 35.2074 43.1049V37.0513C35.2074 33.1581 32.0513 30.002 28.1581 30.002Z" fill="#CDBFBA"/>
<path d="M31.6892 30.9512V40.2787C31.6892 40.801 31.2658 41.2243 30.7435 41.2243H11.793V43.105C11.793 43.6273 12.2163 44.0507 12.7387 44.0507H34.2617C34.784 44.0507 35.2074 43.6273 35.2074 43.105V37.0513C35.2074 34.4452 33.7921 32.1712 31.6892 30.9512Z" fill="#B9ACAC"/>
<path d="M17.1133 44.0507V37.6877C17.1133 36.382 18.1718 35.3235 19.4775 35.3235H27.5207C28.8264 35.3235 29.8849 36.382 29.8849 37.6877V44.0507H17.1133Z" fill="#00F2A6"/>
<path d="M17.1133 41.2244H29.8848V44.0507H17.1133V41.2244Z" fill="#05E39C"/>
<path d="M32.1271 6.43265L30.0254 4.33105V6.43274L32.1271 6.43265Z" fill="#FFD15B"/>
<path d="M10.3909 10.8303L6.68636 12.4491C6.62844 12.4744 6.56703 12.4873 6.50387 12.4873C6.44062 12.4873 6.37921 12.4744 6.32129 12.4491L2.61673 10.8303H2.49023V14.8328C2.49023 15.0191 2.64124 15.1701 2.8275 15.1701H10.1801C10.3663 15.1701 10.5173 15.0191 10.5173 14.8328V10.8303H10.3909Z" fill="#FFE177"/>
<path d="M10.3908 10.8303L8.37001 11.7134V12.7058C8.37001 12.8921 8.219 13.0431 8.03275 13.0431H2.49023V14.8328C2.49023 15.0191 2.64124 15.1701 2.8275 15.1701H10.1801C10.3663 15.1701 10.5173 15.0191 10.5173 14.8328V10.8303H10.3908Z" fill="#FFD15B"/>
<path d="M10.1801 9.14404H2.8275C2.64124 9.14404 2.49023 9.29505 2.49023 9.48131V10.8304L6.301 12.4956C6.43034 12.5521 6.57731 12.5521 6.70665 12.4956L10.5174 10.8304V9.48131C10.5173 9.29505 10.3663 9.14404 10.1801 9.14404Z" fill="#FFD15B"/>
<path d="M10.1792 9.14404H8.36914V11.7687L10.5165 10.8304V9.48131C10.5165 9.29505 10.3654 9.14404 10.1792 9.14404Z" fill="#FFC344"/>
<path d="M44.3831 10.8303L40.6785 12.4491C40.6206 12.4744 40.5592 12.4873 40.4961 12.4873C40.4329 12.4873 40.3714 12.4744 40.3135 12.4491L36.6089 10.8303H36.4824V14.8328C36.4824 15.0191 36.6334 15.1701 36.8197 15.1701H44.1722C44.3585 15.1701 44.5095 15.0191 44.5095 14.8328V10.8303H44.3831Z" fill="#FFE177"/>
<path d="M44.383 10.8303L42.3622 11.7134V12.7058C42.3622 12.8921 42.2112 13.0431 42.0249 13.0431H36.4824V14.8328C36.4824 15.0191 36.6334 15.1701 36.8197 15.1701H44.1722C44.3585 15.1701 44.5095 15.0191 44.5095 14.8328V10.8303H44.383Z" fill="#FFD15B"/>
<path d="M44.1722 9.14404H36.8197C36.6334 9.14404 36.4824 9.29505 36.4824 9.48131V10.8304L40.2932 12.4956C40.4225 12.5521 40.5695 12.5521 40.6988 12.4956L44.5096 10.8304V9.48131C44.5095 9.29505 44.3585 9.14404 44.1722 9.14404Z" fill="#FFD15B"/>
<path d="M44.1714 9.14404H42.3613V11.7687L44.5086 10.8304V9.48131C44.5086 9.29505 44.3576 9.14404 44.1714 9.14404Z" fill="#FFC344"/>
<path d="M28.7728 19.2483H18.2275C17.8472 19.2483 17.5391 18.9401 17.5391 18.5598C17.5391 18.1795 17.8472 17.8713 18.2275 17.8713H28.7727C29.153 17.8713 29.4612 18.1795 29.4612 18.5598C29.4612 18.9401 29.153 19.2483 28.7728 19.2483Z" fill="#FFC344"/>
<path d="M28.7728 15.7683H18.2275C17.8472 15.7683 17.5391 15.4601 17.5391 15.0798C17.5391 14.6995 17.8472 14.3914 18.2275 14.3914H28.7727C29.153 14.3914 29.4612 14.6995 29.4612 15.0798C29.4612 15.4601 29.153 15.7683 28.7728 15.7683Z" fill="#FFC344"/>
<path d="M28.7728 12.2883H18.2275C17.8472 12.2883 17.5391 11.9802 17.5391 11.5999C17.5391 11.2195 17.8472 10.9114 18.2275 10.9114H28.7727C29.153 10.9114 29.4612 11.2195 29.4612 11.5999C29.4612 11.9802 29.153 12.2883 28.7728 12.2883Z" fill="#FFC344"/>
<path d="M23.5853 8.80835H18.2275C17.8472 8.80835 17.5391 8.50019 17.5391 8.11987C17.5391 7.73956 17.8472 7.4314 18.2275 7.4314H23.5853C23.9656 7.4314 24.2737 7.73956 24.2737 8.11987C24.2737 8.50019 23.9655 8.80835 23.5853 8.80835Z" fill="#FFC344"/>
<path d="M23.5853 5.32837H18.2275C17.8472 5.32837 17.5391 5.02021 17.5391 4.63989C17.5391 4.25958 17.8472 3.95142 18.2275 3.95142H23.5853C23.9656 3.95142 24.2737 4.25958 24.2737 4.63989C24.2737 5.02021 23.9655 5.32837 23.5853 5.32837Z" fill="#FFC344"/>
<path d="M21.458 40.4661C21.0777 40.4661 20.7695 40.1579 20.7695 39.7776V39.5959C20.7695 39.2156 21.0777 38.9075 21.458 38.9075C21.8383 38.9075 22.1465 39.2156 22.1465 39.5959V39.7776C22.1465 40.1578 21.8383 40.4661 21.458 40.4661Z" fill="white"/>
<path d="M25.5439 40.4661C25.1636 40.4661 24.8555 40.1579 24.8555 39.7776V39.5959C24.8555 39.2156 25.1636 38.9075 25.5439 38.9075C25.9243 38.9075 26.2324 39.2156 26.2324 39.5959V39.7776C26.2324 40.1578 25.9243 40.4661 25.5439 40.4661Z" fill="white"/>
</g>
</g>
<defs>
<clipPath id="clip0_2028_53">
<rect width="48" height="48" fill="white"/>
</clipPath>
<clipPath id="clip1_2028_53">
<rect width="47" height="47" fill="white" transform="translate(0 -1)"/>
</clipPath>
</defs>
</svg>
