<svg width="30" height="30" viewBox="0 0 30 30" fill="none" xmlns="http://www.w3.org/2000/svg">
<path d="M22.8497 18.244C17.5251 19.3398 18.0062 24.1955 12.3121 18.332C11.7288 17.7297 11.1373 17.0782 10.5881 16.4442C9.96829 15.6932 8.9955 14.7985 8.82648 13.7913C7.96122 11.5706 10.504 10.7136 11.4175 9.08361C12.7386 6.20499 10.5083 2.5729 7.92897 1.14339C4.47219 -0.819449 0.966626 1.79335 0.299581 5.36617C-0.187651 7.6743 0.0295029 10.1043 0.553477 12.388C1.65693 16.8585 4.19786 20.9832 7.75144 23.9159C8.53632 24.3352 9.8408 25.9981 10.7051 25.3962C10.8843 25.1738 10.8442 24.8467 10.6177 24.6736C9.08559 23.4439 7.72009 22.0483 6.52913 20.5023C6.12245 19.9681 5.71698 19.4015 5.35124 18.8382C2.88169 14.9124 1.08051 10.1217 1.81534 5.43629C3.32283 -1.3231 10.7051 2.34717 10.7615 7.75288C10.4896 9.34961 8.83601 9.94965 8.0362 11.3077C6.67592 14.2906 9.51036 17.1294 11.1567 19.3815C12.9416 21.5395 15.8919 24.1032 18.8075 22.4371C20.263 21.6985 21.2623 20.1187 22.934 19.8702C24.2745 19.7635 25.4926 20.5946 26.5092 21.3993C31.4426 24.955 24.9418 29.8475 20.8154 28.8216C19.0596 28.6331 17.3522 28.0931 15.7521 27.3534C12.7621 28.0483 19.8351 29.9265 20.6239 29.8647C24.5086 30.6608 30.3317 27.8789 29.4148 23.2797C28.7344 20.7399 25.4934 18.2412 22.8497 18.244Z" fill="black"/>
<path d="M19.1085 10.3932C18.7827 10.697 18.4456 10.9883 18.0908 11.2583C17.5653 11.6483 18.1886 12.4594 18.701 12.061C21.5008 9.77865 24.2938 7.32864 26.3214 4.31624C26.5452 2.35382 23.9133 4.62648 23.411 5.20026C22.3173 6.34225 21.6331 7.83457 20.5114 8.9572C20.0683 9.44737 19.593 9.94168 19.1085 10.3932Z" fill="black"/>
<path d="M16.6283 6.2318C17.3516 6.47581 17.4724 5.28395 17.8063 4.85977C18.3859 3.67546 18.9857 2.49116 19.7293 1.41C20.4587 0.368289 18.7058 -0.6395 18.1709 0.51148C17.5665 1.78228 17.1685 3.12476 16.782 4.46526C16.741 5.01441 16.1186 5.80319 16.6283 6.2318Z" fill="black"/>
<path d="M28.8025 10.2803C27.4718 10.7272 26.1513 11.2749 24.9751 12.057C24.5805 12.4374 23.586 12.7777 23.7952 13.4346C23.905 13.6311 24.1534 13.7014 24.3499 13.5916C25.8499 12.7184 27.5335 12.2942 29.2369 12.0254C30.4929 11.8279 30.0022 9.8667 28.8025 10.2803Z" fill="black"/>
</svg>
