<svg width="46" height="46" viewBox="0 0 46 46" fill="none" xmlns="http://www.w3.org/2000/svg">
<g clip-path="url(#clip0_2067_537)">
<path d="M18.4763 15.3325C18.1248 15.3376 17.7755 15.3455 17.4258 15.3531L19.0174 20.2518C19.6392 20.2302 20.255 20.2171 20.8656 20.2075C22.1135 20.1887 23.3454 20.1558 24.6125 20.027L23.0053 15.0806C21.4327 15.2735 19.9423 15.3107 18.4763 15.3325Z" fill="black"/>
<path d="M16.7932 7.50253C16.119 7.51304 15.5405 7.58761 14.9141 7.63064L16.5559 12.6834C17.1873 12.661 17.8129 12.6472 18.4328 12.638C19.6714 12.6188 20.8945 12.5863 22.1513 12.4603L20.4585 7.25024C19.3434 7.39076 18.1292 7.48258 16.7932 7.50253Z" fill="black"/>
<path d="M29.8515 9.99197L28.2026 4.91724C26.9394 5.59286 25.2792 6.27379 23.1367 6.77071L24.8412 12.0166C26.3724 11.6421 28.0211 11.0041 29.8515 9.99197Z" fill="black"/>
<path d="M9.40625 16.8448L11.0278 21.8357C12.9141 21.0829 14.6361 20.674 16.252 20.4698L14.6438 15.5203C13.013 15.6911 11.3037 16.0664 9.40625 16.8448Z" fill="black"/>
<path d="M3.86883 25.9712C4.93663 25.2623 6.0408 24.3343 8.56757 22.9873L6.95622 18.0286C4.88371 19.188 4.02417 19.919 2.28516 21.0966L3.86883 25.9712Z" fill="black"/>
<path d="M32.3073 17.5491L30.6964 12.5913C28.8826 13.5514 27.2188 14.1917 25.6758 14.5841L27.2988 19.5789C28.8297 19.2022 30.4777 18.5634 32.3073 17.5491Z" fill="black"/>
<path d="M25.4609 22.6462C23.8781 22.8426 22.3787 22.8798 20.9042 22.9024C20.5624 22.9075 20.2229 22.9155 19.8828 22.9231L21.5513 28.0582C21.8818 28.0509 22.2117 28.0429 22.5438 28.0378C24.0255 28.015 25.5354 27.9715 27.1267 27.7725L25.4609 22.6462Z" fill="black"/>
<path d="M34.823 25.2908L33.1519 20.1472C31.3383 21.1091 29.6753 21.75 28.1328 22.1445L29.7929 27.2535C30.9398 26.9598 32.2206 26.6736 34.823 25.2908Z" fill="black"/>
<path d="M11.8633 24.4075L13.5288 29.5335C15.4272 28.7616 17.1381 28.3909 18.7709 28.2225L17.1031 23.0896C15.471 23.2597 13.7609 23.6332 11.8633 24.4075Z" fill="black"/>
<path d="M4.74219 28.6499L5.84241 32.0358C6.12354 32.9104 7.17165 33.2432 7.89597 32.7302C8.31644 32.4517 9.23411 31.7351 11.0797 30.7104L9.41514 25.5874C7.30453 26.7628 6.40717 27.524 4.74219 28.6499Z" fill="black"/>
<path d="M6.92188 9.19941L8.57159 14.2768C10.4569 13.5217 12.1781 13.1091 13.7933 12.9029L12.1711 7.91016C10.1402 8.22155 8.37564 8.66987 6.92188 9.19941Z" fill="black"/>
<path d="M1.41595 18.4181C2.51572 17.6875 3.60885 16.7694 6.11351 15.4311L4.43946 10.2791C2.15374 11.4363 0.928543 12.5517 0.577343 12.7038C0.0920076 13.0415 -0.11625 13.6571 0.0644255 14.2212L1.41595 18.4181Z" fill="black"/>
<path d="M45.0666 43.5521C45.7745 43.3221 46.1619 42.5618 45.9319 41.8539L33.3485 3.31308C33.1185 2.6052 32.3582 2.21798 31.6503 2.44789C30.9426 2.67789 30.555 3.43806 30.7851 4.14593L43.3684 42.6867C43.5984 43.3947 44.3589 43.7821 45.0666 43.5521Z" fill="black"/>
</g>
<defs>
<clipPath id="clip0_2067_537">
<rect width="46" height="46" fill="white"/>
</clipPath>
</defs>
</svg>
