<svg width="40" height="40" viewBox="0 0 40 40" fill="none" xmlns="http://www.w3.org/2000/svg">
<path fill-rule="evenodd" clip-rule="evenodd" d="M19.4795 0.289686C19.8081 0.125443 20.1947 0.125443 20.523 0.289686L39.1897 9.62309C39.5849 9.82072 39.8346 10.2247 39.8346 10.6666C39.8346 11.1085 39.5849 11.5125 39.1897 11.7101L20.523 21.0434C20.1947 21.2076 19.8081 21.2076 19.4795 21.0434L0.812902 11.7101C0.417636 11.5125 0.167969 11.1085 0.167969 10.6666C0.167969 10.2247 0.417636 9.82072 0.812879 9.62309L19.4795 0.289686ZM3.94337 10.6666L20.0013 18.6956L36.0593 10.6666L20.0013 2.63756L3.94337 10.6666Z" fill="black"/>
<path fill-rule="evenodd" clip-rule="evenodd" d="M0.291402 19.4781C0.579545 18.902 1.28034 18.6682 1.85665 18.9564L20.0016 28.0289L38.1465 18.9564C38.7228 18.6682 39.4235 18.902 39.7117 19.4781C39.9999 20.0545 39.7663 20.7554 39.19 21.0436L20.5233 30.3767C20.1948 30.5409 19.8084 30.5409 19.4798 30.3767L0.813135 21.0436C0.236825 20.7554 0.00323492 20.0545 0.291402 19.4781Z" fill="black"/>
<path fill-rule="evenodd" clip-rule="evenodd" d="M0.291402 28.8114C0.579545 28.2351 1.28034 28.0015 1.85665 28.2897L20.0016 37.3622L38.1465 28.2897C38.7228 28.0015 39.4235 28.2351 39.7117 28.8114C39.9999 29.3878 39.7663 30.0885 39.19 30.3766L20.5233 39.71C20.1948 39.8742 19.8084 39.8742 19.4798 39.71L0.813135 30.3766C0.236825 30.0885 0.00323492 29.3878 0.291402 28.8114Z" fill="black"/>
</svg>
