<svg width="142" height="119" viewBox="0 0 142 119" fill="none" xmlns="http://www.w3.org/2000/svg">
<circle cx="16.5" cy="43.5" r="16.5" fill="black"/>
<path fill-rule="evenodd" clip-rule="evenodd" d="M25.6128 36.6488C26.0327 37.0163 26.0708 37.6564 25.6973 38.0709L15.1834 49.7407C14.808 50.1574 14.1634 50.1839 13.755 49.7995L7.67096 44.0719C7.29154 43.7147 7.25522 43.1195 7.58075 42.7126C7.93995 42.2636 8.60886 42.2018 9.03635 42.5863L13.7567 46.8322C14.167 47.2012 14.7985 47.1682 15.1681 46.7585L24.2116 36.7316C24.5775 36.3258 25.2016 36.289 25.6128 36.6488Z" fill="white"/>
<path d="M94.5799 71.2919C92.7047 69.4168 89.6576 69.4168 87.8005 71.2919L68.9227 90.1696C64.2168 94.8755 56.7523 95.2542 51.9202 91.0351C49.2517 88.6912 47.7191 85.3195 47.7191 81.7855C47.7191 78.5221 48.9812 75.4389 51.3071 73.131L70.4733 53.9648C72.3485 52.0896 72.3485 49.0425 70.4733 47.1854L61.4582 38.1702C59.6371 36.3492 56.4818 36.3492 54.6788 38.1702L48.3321 44.5169L34.9897 57.8593C21.503 71.346 21.503 93.3069 35.0077 106.812C41.7511 113.555 50.622 116.927 59.4749 116.927C68.3277 116.927 77.1986 113.555 83.942 106.812L97.2844 93.4692L103.631 87.1225C104.533 86.221 105.037 85.013 105.037 83.7328C105.037 82.4527 104.533 81.2446 103.631 80.3431L94.5799 71.2919ZM56.5359 40.0093C56.9506 39.5946 57.5096 39.3783 58.0685 39.3783C58.6274 39.3783 59.1683 39.5946 59.583 40.0093L68.5982 49.0245C69.4456 49.8719 69.4456 51.2242 68.5982 52.0716L63.1711 57.4987L51.1088 45.4365L56.5359 40.0093ZM82.0488 104.918C69.5899 117.377 49.3058 117.377 36.8288 104.9C24.3699 92.4415 24.3699 72.1574 36.8288 59.6984L49.2336 47.2936L61.2959 59.3558L49.4139 71.2378C46.6012 74.0505 45.0506 77.8008 45.0506 81.7675C45.0506 86.0768 46.9077 90.1696 50.1532 93.0004C56.013 98.139 65.0642 97.7063 70.7618 92.0087L82.3553 80.4152L94.4176 92.4775L82.0488 104.918ZM101.738 85.2293L96.3108 90.6564L84.2485 78.5942L89.6756 73.1671C90.523 72.3196 91.8933 72.3377 92.7227 73.1671L101.738 82.1822C102.585 83.0116 102.585 84.3819 101.738 85.2293Z" fill="black"/>
<path d="M80.5697 42.6958C87.295 42.6958 93.5696 39.3782 97.3559 33.8069C99.6458 30.3991 100.872 26.4505 100.872 22.3937C100.872 11.1969 91.7665 2.09155 80.5697 2.09155C69.3729 2.09155 60.2676 11.1969 60.2676 22.3937C60.2676 26.4685 61.4756 30.4172 63.7835 33.8069C67.5699 39.3602 73.8444 42.6958 80.5697 42.6958ZM80.5697 40.0453C75.0344 40.0453 69.8777 37.4309 66.5421 33.0676C69.8236 28.7403 74.9082 26.144 80.3714 26.0899C80.4435 26.0899 80.4976 26.1079 80.5697 26.1079C80.6418 26.1079 80.6959 26.0899 80.768 26.0899C86.2312 26.144 91.3158 28.7403 94.5973 33.0676C91.2617 37.4309 86.105 40.0453 80.5697 40.0453ZM75.2688 20.6447C74.5476 19.5629 74.1509 18.3188 74.1509 17.0387C74.1509 13.5047 77.0358 10.6199 80.5697 10.6199C84.1036 10.6199 86.9885 13.5047 86.9885 17.0387C86.9885 18.3188 86.6098 19.5809 85.8706 20.6447C84.6986 22.3576 82.7694 23.3853 80.6959 23.4394C80.6599 23.4394 80.6058 23.4394 80.5697 23.4394C80.5336 23.4394 80.4795 23.4394 80.4435 23.4394C78.352 23.3853 76.4227 22.3576 75.2688 20.6447ZM80.5697 4.72398C90.3061 4.72398 98.2214 12.6393 98.2214 22.3756C98.2214 25.2966 97.4641 28.1273 96.0938 30.6876C93.4614 27.5323 89.9635 25.2966 86.0689 24.1967C86.8262 23.6197 87.5114 22.9166 88.0523 22.1052C89.08 20.5906 89.6209 18.8237 89.6209 17.0206C89.6209 12.0262 85.5641 7.96943 80.5697 7.96943C75.5753 7.96943 71.5005 12.0443 71.5005 17.0387C71.5005 18.8597 72.0414 20.6087 73.0691 22.1412C73.628 22.9526 74.2952 23.6378 75.0524 24.2147C71.1579 25.3146 67.66 27.5503 65.0276 30.7056C63.6573 28.1453 62.9 25.3146 62.9 22.3937C62.9 12.6573 70.8333 4.72398 80.5697 4.72398Z" fill="black"/>
<path d="M122.492 46.7708C112.755 46.7708 104.84 54.6861 104.84 64.4224C104.84 67.9564 105.904 71.4002 107.887 74.3571C111.187 79.1892 116.632 82.0741 122.492 82.0741C128.333 82.0741 133.797 79.1892 137.096 74.3391C139.097 71.3821 140.143 67.9564 140.143 64.4044C140.161 54.6861 132.228 46.7708 122.492 46.7708ZM107.49 64.4224C107.49 56.1465 114.216 49.4032 122.51 49.4032C130.803 49.4032 137.529 56.1465 137.529 64.4224C137.529 66.8024 136.934 69.1283 135.87 71.2379C133.67 68.6956 130.822 66.8745 127.648 65.9189C128.207 65.4501 128.712 64.9092 129.127 64.2962C130.028 62.962 130.497 61.4114 130.497 59.8067C130.497 55.4073 126.927 51.8373 122.528 51.8373C118.128 51.8373 114.558 55.4073 114.558 59.8067C114.558 61.4114 115.027 62.962 115.947 64.2962C116.361 64.9092 116.866 65.4501 117.425 65.9189C114.252 66.8926 111.403 68.7136 109.203 71.2559C108.085 69.1464 107.49 66.8204 107.49 64.4224ZM122.492 65.1436C122.455 65.1436 122.419 65.1436 122.383 65.1436C120.652 65.1076 119.066 64.2601 118.092 62.8358C117.497 61.9342 117.173 60.9065 117.173 59.8247C117.173 56.8858 119.571 54.4877 122.51 54.4877C125.448 54.4877 127.847 56.8858 127.847 59.8247C127.847 60.8885 127.522 61.9342 126.927 62.8177C125.953 64.2421 124.349 65.1076 122.618 65.1436C122.582 65.1436 122.546 65.1436 122.492 65.1436ZM122.492 79.4417C117.84 79.4417 113.476 77.26 110.646 73.6179C113.44 69.9938 117.713 67.8482 122.311 67.7941C122.365 67.7941 122.419 67.8121 122.473 67.8121C122.528 67.8121 122.582 67.7941 122.636 67.7941C127.233 67.8482 131.507 70.0118 134.301 73.6179C131.507 77.278 127.161 79.4417 122.492 79.4417Z" fill="black"/>
<path d="M109.51 34.0413C112.286 37.6654 116.523 39.7569 121.103 39.7569C125.683 39.7569 129.92 37.6654 132.715 34.0233C132.895 33.7889 133.039 33.5725 133.183 33.3561C134.842 30.904 135.726 28.0733 135.726 25.1524C135.726 17.0928 129.163 10.5298 121.103 10.5298C113.044 10.5298 106.48 17.0928 106.48 25.1524C106.48 28.0733 107.364 30.9221 109.005 33.3561C109.167 33.5905 109.329 33.8069 109.51 34.0413ZM121.103 37.1245C117.695 37.1245 114.54 35.7181 112.286 33.248C114.558 30.7778 117.713 29.3715 121.103 29.3715C124.493 29.3715 127.648 30.7778 129.92 33.248C127.648 35.7181 124.511 37.1245 121.103 37.1245ZM124.493 24.936C123.735 26.0539 122.455 26.721 121.103 26.721C119.751 26.721 118.471 26.0539 117.713 24.936C117.245 24.2508 116.992 23.4395 116.992 22.6281C116.992 20.3743 118.831 18.5352 121.085 18.5352C123.339 18.5352 125.178 20.3743 125.178 22.6281C125.196 23.4575 124.962 24.2508 124.493 24.936ZM121.103 13.1802C127.702 13.1802 133.075 18.5533 133.075 25.1704C133.075 27.2439 132.498 29.2452 131.47 31.0663C129.848 29.4255 127.9 28.2175 125.737 27.5143C126.079 27.1898 126.386 26.8292 126.656 26.4325C127.414 25.2966 127.828 23.9984 127.828 22.6461C127.828 18.9319 124.799 15.9028 121.085 15.9028C117.371 15.9028 114.342 18.9319 114.342 22.6461C114.342 23.9984 114.738 25.3146 115.514 26.4325C115.784 26.8292 116.091 27.1718 116.433 27.4963C114.288 28.2175 112.322 29.4255 110.7 31.0663C109.672 29.2633 109.095 27.2439 109.095 25.1704C109.131 18.5533 114.504 13.1802 121.103 13.1802Z" fill="black"/>
<path d="M83.6178 67.6857C83.7801 67.7578 83.9604 67.7939 84.1227 67.7939C84.6456 67.7939 85.1324 67.4874 85.3488 66.9825L88.9188 58.4361C89.081 58.0215 89.045 57.5707 88.7925 57.1921C88.5401 56.8315 88.1434 56.5971 87.6927 56.5971H82.4819L84.9701 50.1602C85.2406 49.4751 84.898 48.7178 84.2128 48.4474C83.5277 48.1769 82.7704 48.5195 82.5 49.2046L79.3266 57.4265C79.1644 57.8412 79.2184 58.2919 79.4709 58.6525C79.7233 59.0131 80.12 59.2295 80.5527 59.2295H85.7094L82.8966 65.9368C82.6262 66.6219 82.9507 67.3972 83.6178 67.6857Z" fill="black"/>
<path d="M41.8594 29.8942C42.1479 30.2188 42.5806 30.3811 43.0133 30.327C43.4461 30.2729 43.8247 30.0205 44.023 29.6238L46.403 25.0621L51.0549 30.6515C51.3253 30.958 51.6859 31.1203 52.0646 31.1203C52.3711 31.1203 52.6596 31.0121 52.912 30.8138C53.4709 30.345 53.543 29.5156 53.0923 28.9567L47.1783 21.8347C46.8899 21.4921 46.4571 21.3298 46.0244 21.3659C45.5917 21.42 45.195 21.6724 44.9967 22.0691L42.5806 26.6848L38.037 21.4921C37.5502 20.9512 36.7208 20.8971 36.1799 21.3659C35.6209 21.8708 35.5668 22.7182 36.0356 23.2591L41.8594 29.8942Z" fill="black"/>
<path d="M117.55 94.1001L112.538 95.5245L113.169 88.6549C113.241 87.9337 112.7 87.2846 111.979 87.2125C111.258 87.1404 110.609 87.6813 110.537 88.4025L109.725 97.1833C109.689 97.616 109.869 98.0487 110.194 98.3192C110.537 98.5896 110.987 98.6978 111.402 98.5716L116.36 97.1652L115.495 104.377C115.405 105.099 115.928 105.766 116.649 105.838H116.811C117.478 105.838 118.037 105.351 118.127 104.666L119.227 95.4704C119.281 95.0377 119.101 94.5869 118.776 94.3165C118.434 94.0821 117.983 93.9919 117.55 94.1001Z" fill="black"/>
</svg>
