<svg width="53" height="52" viewBox="0 0 53 52" fill="none" xmlns="http://www.w3.org/2000/svg">
<path fill-rule="evenodd" clip-rule="evenodd" d="M43.0527 12.3574L12.9869 42.3098L10.4097 39.7425L40.4756 9.79004L43.0527 12.3574Z" fill="black"/>
<path fill-rule="evenodd" clip-rule="evenodd" d="M39.1871 11.074C33.1265 17.1117 33.5039 27.355 39.1871 33.0168L40.4756 34.3005L43.0528 31.733L41.7642 30.4493C37.4492 26.1505 37.1815 18.2068 41.7642 13.6414L43.053 12.3575L40.4759 9.79011L39.1871 11.074Z" fill="black"/>
<path fill-rule="evenodd" clip-rule="evenodd" d="M41.764 13.6413C35.7034 19.679 25.4214 19.3032 19.7382 13.6414L18.4496 12.3577L21.0268 9.79031L22.3153 11.074C26.6303 15.3727 34.6041 15.6394 39.1869 11.0739L40.4756 9.79004L43.0527 12.3574L41.764 13.6413Z" fill="black"/>
</svg>
