<svg width="51" height="51" viewBox="0 0 51 51" fill="none" xmlns="http://www.w3.org/2000/svg">
<path d="M34.1583 9.1337L31.4211 8.22559L30.5131 5.48822C30.4714 5.36245 30.3538 5.27759 30.2216 5.27759C30.0891 5.27759 29.9716 5.36245 29.9298 5.48822L29.0222 8.22559L26.2845 9.1337C26.1589 9.17511 26.0742 9.29282 26.0742 9.42491C26.0742 9.55741 26.1589 9.67481 26.2845 9.71663L29.0222 10.6246L29.9298 13.3621C29.9716 13.4878 30.0891 13.5725 30.2216 13.5725C30.3539 13.5725 30.4714 13.4878 30.5131 13.3621L31.4211 10.6246L34.1583 9.71663C34.284 9.67481 34.3691 9.5573 34.3691 9.42491C34.3692 9.29272 34.2841 9.17511 34.1583 9.1337Z" fill="#333333"/>
<path d="M42.7454 5.57477L41.1148 5.03386L40.5739 3.40329C40.5492 3.32842 40.4791 3.27783 40.4002 3.27783C40.3214 3.27783 40.2514 3.32842 40.2267 3.40329L39.6858 5.03386L38.055 5.57477C37.9802 5.59945 37.9297 5.66953 37.9297 5.74827C37.9297 5.82712 37.9801 5.89719 38.055 5.92218L39.6858 6.46309L40.2267 8.09346C40.2514 8.16853 40.3214 8.21902 40.4002 8.21902C40.4791 8.21902 40.5492 8.16853 40.5739 8.09346L41.1148 6.46309L42.7454 5.92218C42.8203 5.89719 42.8709 5.82712 42.8709 5.74827C42.8709 5.66953 42.8203 5.59945 42.7454 5.57477Z" fill="#333333"/>
<path d="M21.1164 28.8742L13.6092 21.367L17.2303 17.7457L24.8582 25.3736L26.3488 23.9793L18.237 15.8673C18.1872 15.7419 18.1119 15.6244 18.0105 15.5229C17.909 15.4216 17.7915 15.3464 17.6661 15.2965L15.3019 12.9322C14.48 12.1104 13.3875 11.658 12.2253 11.658C11.0632 11.658 9.97072 12.1105 9.14911 12.9321L8.79558 13.2856C7.09932 14.9821 7.09942 17.7423 8.79568 19.4385L19.6256 30.2686L21.1164 28.8742ZM10.2382 17.9961C9.3373 17.0953 9.3373 15.6292 10.2382 14.7283L10.5916 14.3748C11.0281 13.9384 11.6082 13.6981 12.2254 13.6981C12.8426 13.6981 13.4229 13.9383 13.8595 14.3749L15.7878 16.3032L12.1667 19.9245L10.2382 17.9961Z" fill="#333333"/>
<path d="M42.4926 44.9856C42.0875 43.7684 39.9957 37.6257 38.5954 36.2253L38.5864 36.2162C38.5366 36.0908 38.4613 35.9733 38.3598 35.8718C38.2584 35.7704 38.1409 35.6952 38.0155 35.6454L33.0543 30.6841L31.7232 32.2381L36.137 36.6519L32.5158 40.2732L28.3818 36.1391L27.0508 37.6931L32.0892 42.7315C33.4895 44.1318 39.632 46.2233 40.8492 46.6283C40.9548 46.6635 41.0634 46.6805 41.1712 46.6805C41.4373 46.6805 41.6979 46.5763 41.8922 46.3821L42.2455 46.0291C42.5191 45.7563 42.6147 45.3522 42.4926 44.9856ZM34.0267 41.6479L37.5117 38.1627C38.2142 39.3283 39.2588 41.9418 40.0633 44.1993C37.806 43.3948 35.1924 42.3503 34.0267 41.6479Z" fill="#333333"/>
<path d="M42.2396 12.6982L42.0399 12.4987C41.4977 11.9568 40.7718 11.6582 39.9961 11.6582C39.215 11.6582 38.4817 11.9581 37.9285 12.5032L15.5853 33.1194C15.5752 33.1287 15.5656 33.1382 15.5558 33.1478C15.0934 33.61 14.8455 34.1956 14.8364 34.8428C14.5635 34.7861 14.2786 34.7526 13.9833 34.7526C12.8156 34.7526 11.763 35.2536 10.8548 36.2415C9.70413 37.4933 9.22911 38.8752 8.8102 40.0943C8.18841 41.9038 7.69718 43.3331 5.27202 44.3682C4.96041 44.5012 4.7353 44.7801 4.67094 45.1127C4.60658 45.4453 4.71153 45.788 4.95113 46.0275C5.75 46.8265 7.88414 47.11 9.46881 47.11C11.5421 47.11 15.4669 46.6631 18.4587 43.6712C19.3121 42.8178 19.7437 41.8207 19.7412 40.7077C19.7405 40.4264 19.7102 40.1517 19.6587 39.8857C19.7267 39.8909 19.795 39.8946 19.8636 39.8946C20.5281 39.8946 21.1287 39.6451 21.6009 39.173C21.6105 39.1633 21.6201 39.1535 21.6293 39.1434L42.2356 16.8099C43.3633 15.6655 43.367 13.8259 42.2396 12.6982ZM17.0162 42.2288C14.5441 44.701 11.2265 45.0701 9.46892 45.0701C8.98248 45.0701 8.54816 45.0433 8.16913 45.0015C9.71943 43.7253 10.2534 42.1718 10.7394 40.7574C11.1278 39.6273 11.4946 38.5599 12.3566 37.6222C12.8697 37.0641 13.4017 36.7927 13.9832 36.7927C14.9466 36.7927 15.9156 37.5469 16.2962 37.9192C16.3348 37.9602 16.3641 37.9898 16.38 38.0057L16.4116 38.0374C16.5177 38.1474 17.6984 39.405 17.7013 40.7124C17.7026 41.2706 17.4784 41.7668 17.0162 42.2288ZM40.7773 15.3837C40.7676 15.3933 40.7581 15.4031 40.749 15.4132L20.147 37.742C20.0611 37.8241 19.9828 37.8548 19.8637 37.8548C19.3572 37.8548 18.5696 37.3039 18.1756 36.9162L17.8625 36.603C17.8611 36.6016 17.859 36.5994 17.8577 36.5981C17.8348 36.5737 17.7988 36.5363 17.7513 36.489C17.4344 36.1479 16.8762 35.3951 16.8754 34.8806C16.8753 34.7639 16.9058 34.6869 16.9869 34.602L39.3255 13.9901C39.3356 13.9807 39.3455 13.9712 39.3552 13.9616C39.525 13.7917 39.7525 13.6983 39.9961 13.6983C40.2271 13.6983 40.4407 13.7847 40.5979 13.9418L40.7973 14.1411C41.1288 14.4724 41.1195 15.0415 40.7773 15.3837Z" fill="#333333"/>
</svg>
