<svg width="135" height="125" viewBox="0 0 135 125" fill="none" xmlns="http://www.w3.org/2000/svg">
<circle cx="118.5" cy="56.5" r="16.5" fill="black"/>
<path fill-rule="evenodd" clip-rule="evenodd" d="M127.613 49.6488C128.033 50.0163 128.071 50.6564 127.697 51.0709L117.183 62.7407C116.808 63.1574 116.163 63.1839 115.755 62.7995L109.671 57.0719C109.292 56.7147 109.255 56.1195 109.581 55.7126C109.94 55.2636 110.609 55.2018 111.036 55.5863L115.757 59.8322C116.167 60.2012 116.799 60.1682 117.168 59.7585L126.212 49.7316C126.578 49.3258 127.202 49.289 127.613 49.6488Z" fill="white"/>
<path fill-rule="evenodd" clip-rule="evenodd" d="M33.4473 64.209C28.5645 64.209 24.9023 60.3027 24.9023 55.6641C24.9023 51.0254 28.5645 47.1191 33.4473 47.1191C38.0859 47.1191 41.748 51.0254 41.748 55.6641C41.748 60.3027 38.0859 64.209 33.4473 64.209ZM33.4473 50.0488C30.2734 50.0488 27.832 52.4902 27.832 55.6641C27.832 58.5938 30.2734 61.2793 33.4473 61.2793C36.377 61.2793 38.8184 58.5938 38.8184 55.6641C38.8184 52.4902 36.377 50.0488 33.4473 50.0488Z" fill="black"/>
<path fill-rule="evenodd" clip-rule="evenodd" d="M71.0449 62.0117H57.8613C54.1992 62.0117 51.2695 59.082 51.2695 55.6641C51.2695 52.002 54.1992 49.0723 57.8613 49.0723H71.0449C74.707 49.0723 77.3926 52.002 77.3926 55.6641C77.3926 59.082 74.707 62.0117 71.0449 62.0117ZM57.8613 52.002C55.9082 52.002 54.1992 53.7109 54.1992 55.6641C54.1992 57.6172 55.9082 59.082 57.8613 59.082H71.0449C72.998 59.082 74.4629 57.6172 74.4629 55.6641C74.4629 53.7109 72.998 52.002 71.0449 52.002H57.8613Z" fill="black"/>
<path fill-rule="evenodd" clip-rule="evenodd" d="M83.4961 72.7539C82.5195 72.7539 82.0312 72.0215 82.0312 71.2891V57.1289H75.9277C75.1953 57.1289 74.4629 56.3965 74.4629 55.6641C74.4629 54.9316 75.1953 54.1992 75.9277 54.1992H83.4961C84.2285 54.1992 84.9609 54.9316 84.9609 55.6641V71.2891C84.9609 72.0215 84.2285 72.7539 83.4961 72.7539ZM52.7344 57.1289H40.2832C39.5508 57.1289 38.8184 56.3965 38.8184 55.6641C38.8184 54.9316 39.5508 54.1992 40.2832 54.1992H52.7344C53.4668 54.1992 54.1992 54.9316 54.1992 55.6641C54.1992 56.3965 53.4668 57.1289 52.7344 57.1289Z" fill="black"/>
<path fill-rule="evenodd" clip-rule="evenodd" d="M90.0879 82.7637H76.6602C73.2422 82.7637 70.3125 79.834 70.3125 76.1719C70.3125 72.7539 73.2422 69.8242 76.6602 69.8242H90.0879C93.5059 69.8242 96.4355 72.7539 96.4355 76.1719C96.4355 79.834 93.5059 82.7637 90.0879 82.7637ZM76.6602 72.7539C74.707 72.7539 73.2422 74.2188 73.2422 76.1719C73.2422 78.125 74.707 79.834 76.6602 79.834H90.0879C92.041 79.834 93.5059 78.125 93.5059 76.1719C93.5059 74.2188 92.041 72.7539 90.0879 72.7539H76.6602Z" fill="black"/>
<path fill-rule="evenodd" clip-rule="evenodd" d="M52.7344 82.7637H39.3066C35.8887 82.7637 32.959 79.834 32.959 76.1719C32.959 72.7539 35.8887 69.8242 39.3066 69.8242H52.7344C56.1523 69.8242 59.082 72.7539 59.082 76.1719C59.082 79.834 56.1523 82.7637 52.7344 82.7637ZM39.3066 72.7539C37.3535 72.7539 35.8887 74.2188 35.8887 76.1719C35.8887 78.125 37.3535 79.834 39.3066 79.834H52.7344C54.6875 79.834 56.1523 78.125 56.1523 76.1719C56.1523 74.2188 54.6875 72.7539 52.7344 72.7539H39.3066Z" fill="black"/>
<path fill-rule="evenodd" clip-rule="evenodd" d="M71.7773 77.6367H57.6172C56.8848 77.6367 56.1523 77.1484 56.1523 76.1719C56.1523 75.4395 56.8848 74.707 57.6172 74.707H71.7773C72.5098 74.707 73.2422 75.4395 73.2422 76.1719C73.2422 77.1484 72.5098 77.6367 71.7773 77.6367ZM34.4238 77.6367H30.0293C29.2969 77.6367 28.5645 77.1484 28.5645 76.1719C28.5645 75.4395 29.2969 74.707 30.0293 74.707H34.4238C35.1562 74.707 35.8887 75.4395 35.8887 76.1719C35.8887 77.1484 35.1562 77.6367 34.4238 77.6367Z" fill="black"/>
<path fill-rule="evenodd" clip-rule="evenodd" d="M30.0293 93.75C29.2969 93.75 28.5645 93.2617 28.5645 92.2852V76.1719C28.5645 75.4395 29.2969 74.707 30.0293 74.707C30.7617 74.707 31.4941 75.4395 31.4941 76.1719V92.2852C31.4941 93.2617 30.7617 93.75 30.0293 93.75Z" fill="black"/>
<path fill-rule="evenodd" clip-rule="evenodd" d="M36.6211 103.76H23.4375C19.7754 103.76 17.0898 100.83 17.0898 97.4121C17.0898 93.75 19.7754 90.8203 23.4375 90.8203H36.6211C40.2832 90.8203 43.2129 93.75 43.2129 97.4121C43.2129 100.83 40.2832 103.76 36.6211 103.76ZM23.4375 93.75C21.4844 93.75 20.0195 95.459 20.0195 97.4121C20.0195 99.3652 21.4844 100.83 23.4375 100.83H36.6211C38.5742 100.83 40.2832 99.3652 40.2832 97.4121C40.2832 95.459 38.5742 93.75 36.6211 93.75H23.4375Z" fill="black"/>
<path fill-rule="evenodd" clip-rule="evenodd" d="M64.6973 89.5996C63.9648 89.5996 63.2324 89.1113 63.2324 88.1348V76.1719C63.2324 75.4395 63.9648 74.707 64.6973 74.707C65.4297 74.707 66.1621 75.4395 66.1621 76.1719V88.1348C66.1621 89.1113 65.4297 89.5996 64.6973 89.5996Z" fill="black"/>
<path fill-rule="evenodd" clip-rule="evenodd" d="M64.6963 107.91C64.208 107.91 63.9639 107.666 63.7197 107.422L55.6631 98.3887C55.1748 97.6562 55.1748 96.9238 55.6631 96.4355L63.7197 87.1582C63.9639 86.9141 64.208 86.6699 64.6963 86.6699C65.1846 86.6699 65.4287 86.9141 65.917 87.1582L73.7295 96.4355C74.2178 96.9238 74.2178 97.6562 73.7295 98.3887L65.917 107.422C65.4287 107.666 65.1846 107.91 64.6963 107.91ZM58.5928 97.4121L64.6963 104.248L70.7998 97.4121L64.6963 90.332L58.5928 97.4121Z" fill="black"/>
<path fill-rule="evenodd" clip-rule="evenodd" d="M101.562 103.76H88.3789C84.7168 103.76 81.7871 100.83 81.7871 97.4121C81.7871 93.75 84.7168 90.8203 88.3789 90.8203H101.562C105.225 90.8203 107.91 93.75 107.91 97.4121C107.91 100.83 105.225 103.76 101.562 103.76ZM88.3789 93.75C86.4258 93.75 84.7168 95.459 84.7168 97.4121C84.7168 99.3652 86.4258 100.83 88.3789 100.83H101.562C103.516 100.83 104.98 99.3652 104.98 97.4121C104.98 95.459 103.516 93.75 101.562 93.75H88.3789Z" fill="black"/>
<path fill-rule="evenodd" clip-rule="evenodd" d="M83.252 98.877H72.7539C72.0215 98.877 71.2891 98.1445 71.2891 97.4121C71.2891 96.4355 72.0215 95.9473 72.7539 95.9473H83.252C83.9844 95.9473 84.7168 96.4355 84.7168 97.4121C84.7168 98.1445 83.9844 98.877 83.252 98.877Z" fill="black"/>
<path fill-rule="evenodd" clip-rule="evenodd" d="M112.305 125H12.6953C11.7188 125 11.2305 124.268 11.2305 123.535V1.46484C11.2305 0.732422 11.7188 0 12.6953 0H79.3457C80.0781 0 80.8105 0.732422 80.8105 1.46484V30.0293H112.305C113.281 30.0293 113.77 30.7617 113.77 31.4941V123.535C113.77 124.268 113.281 125 112.305 125ZM14.1602 122.07H110.84V32.959H79.3457C78.6133 32.959 77.8809 32.4707 77.8809 31.4941V2.92969H14.1602V122.07Z" fill="black"/>
<path fill-rule="evenodd" clip-rule="evenodd" d="M112.305 32.959H79.3457C78.6133 32.959 77.8809 32.4707 77.8809 31.4941V1.46481C77.8809 0.976527 78.125 0.244105 78.8574 0.244105C79.3457 -3.55765e-05 79.834 -3.55765e-05 80.3223 0.488246L113.281 30.5175C113.77 31.0058 114.014 31.4941 113.77 32.2265C113.525 32.7148 113.037 32.959 112.305 32.959ZM80.8105 30.0293H108.643L80.8105 4.88278V30.0293Z" fill="black"/>
<path fill-rule="evenodd" clip-rule="evenodd" d="M67.8711 12.6953H23.9258C23.1934 12.6953 22.4609 11.9629 22.4609 11.2305C22.4609 10.498 23.1934 9.76562 23.9258 9.76562H67.8711C68.8477 9.76562 69.3359 10.498 69.3359 11.2305C69.3359 11.9629 68.8477 12.6953 67.8711 12.6953Z" fill="black"/>
<path fill-rule="evenodd" clip-rule="evenodd" d="M67.8711 19.5312H23.9258C23.1934 19.5312 22.4609 19.043 22.4609 18.0664C22.4609 17.334 23.1934 16.6016 23.9258 16.6016H67.8711C68.8477 16.6016 69.3359 17.334 69.3359 18.0664C69.3359 19.043 68.8477 19.5312 67.8711 19.5312Z" fill="black"/>
<path fill-rule="evenodd" clip-rule="evenodd" d="M67.8711 26.3672H23.9258C23.1934 26.3672 22.4609 25.8789 22.4609 24.9023C22.4609 24.1699 23.1934 23.4375 23.9258 23.4375H67.8711C68.8477 23.4375 69.3359 24.1699 69.3359 24.9023C69.3359 25.8789 68.8477 26.3672 67.8711 26.3672Z" fill="black"/>
</svg>
