<svg width="25" height="29" viewBox="0 0 25 29" fill="none" xmlns="http://www.w3.org/2000/svg">
<path fill-rule="evenodd" clip-rule="evenodd" d="M0.5313 9.6278C0.528795 9.25878 0.619009 8.89501 0.793703 8.56989C0.968173 8.24518 1.22129 7.96946 1.52985 7.76794L11.2716 1.28361C11.634 1.03773 12.062 0.90624 12.5001 0.90624C12.9381 0.90624 13.3661 1.03773 13.7285 1.28361L23.4702 7.76794C23.7788 7.96946 24.0319 8.24517 24.2064 8.56988C24.3811 8.89502 24.4713 9.25881 24.4688 9.62784L24.4688 20.9723C24.4688 27.0612 17.6848 30.6948 12.6162 27.3208L13.1703 26.4884L12.6063 27.3141C12.575 27.2927 12.5379 27.2812 12.5001 27.2812C12.4622 27.2812 12.4251 27.2927 12.3938 27.3141L11.8298 26.4884L12.3839 27.3208C7.31531 30.6948 0.531301 27.0611 0.5313 20.9723L0.5313 9.6278ZM11.2715 25.6587C11.6339 25.4128 12.0619 25.2812 12.5001 25.2812C12.9382 25.2812 13.3661 25.4127 13.7286 25.6586C17.4675 28.1432 22.4688 25.4627 22.4688 20.9723L22.4688 9.61471C22.4691 9.58046 22.4608 9.54669 22.4446 9.51652C22.4284 9.48635 22.4048 9.46076 22.3761 9.44211L22.9204 8.6032L22.3663 9.43565L12.6062 2.93912C12.5749 2.91774 12.538 2.90624 12.5001 2.90624C12.4621 2.90624 12.4251 2.91768 12.3938 2.93906L12.3839 2.94586L2.62404 9.44217C2.5953 9.46081 2.5717 9.48635 2.55549 9.51652C2.53928 9.54669 2.53094 9.58047 2.53126 9.61472L2.53134 9.6239L2.5313 20.9723C2.5313 25.4627 7.53256 28.1432 11.2715 25.6587Z" fill="black"/>
</svg>
