<svg width="42" height="48" viewBox="0 0 42 48" fill="none" xmlns="http://www.w3.org/2000/svg">
<path fill-rule="evenodd" clip-rule="evenodd" d="M28.2638 47.9998H13.734C13.3195 47.9998 12.9844 47.6642 12.9844 47.2496V41.6179C12.9844 41.203 13.3195 40.8677 13.734 40.8677H28.2634C28.6778 40.8677 29.0135 41.2034 29.0135 41.6179V47.25C29.0139 47.6642 28.6781 47.9998 28.2638 47.9998Z" fill="url(#paint0_linear_2027_32)"/>
<path fill-rule="evenodd" clip-rule="evenodd" d="M30.2944 42.368H11.7061C11.2917 42.368 10.956 42.0324 10.956 41.6179V33.138C5.90959 29.7671 2.91016 24.1728 2.91016 18.091C2.90927 8.11582 11.0251 0.000488281 21.0004 0.000488281C30.9754 0.000488281 39.0911 8.11546 39.0911 18.0912C39.0911 24.1732 36.0914 29.7674 31.0445 33.1384V41.6183C31.0445 42.032 30.7085 42.368 30.2944 42.368Z" fill="url(#paint1_linear_2027_32)"/>
<path fill-rule="evenodd" clip-rule="evenodd" d="M21.7503 42.3681H20.25V22.4051C20.25 21.8375 20.5856 21.3779 21.0002 21.3779C21.4146 21.3779 21.7503 21.8375 21.7503 22.4051V42.3681Z" fill="url(#paint2_linear_2027_32)"/>
<path fill-rule="evenodd" clip-rule="evenodd" d="M32.2525 15.1966C32.0166 15.1966 31.7842 15.0852 31.638 14.8778C31.4004 14.539 31.482 14.0714 31.8208 13.8327L34.4286 12.0008C34.5549 11.9117 34.7052 11.864 34.86 11.864L40.328 11.8645C40.7426 11.8645 41.0782 12.1996 41.0782 12.6145C41.0782 13.0291 40.7425 13.3643 40.328 13.3643H35.0968L32.6824 15.0606C32.5518 15.1521 32.4014 15.1966 32.2525 15.1966Z" fill="url(#paint3_linear_2027_32)"/>
<path fill-rule="evenodd" clip-rule="evenodd" d="M9.74706 15.1966C9.59824 15.1966 9.44743 15.1524 9.31621 15.0603L6.9021 13.3639H1.67162C1.25705 13.3639 0.921875 13.0288 0.921875 12.6143C0.921875 12.1993 1.25705 11.8641 1.67162 11.8641L7.13996 11.864C7.29431 11.864 7.44468 11.9117 7.57125 12.0003L10.1796 13.8327C10.5183 14.0702 10.6 14.5386 10.3621 14.8778C10.2152 15.0857 9.98258 15.1966 9.74706 15.1966Z" fill="url(#paint4_linear_2027_32)"/>
<path fill-rule="evenodd" clip-rule="evenodd" d="M7.13996 23.0426H1.67162C1.25705 23.0426 0.921875 22.7073 0.921875 22.2924C0.921875 21.8779 1.25705 21.5428 1.67162 21.5428H6.90255L9.31666 19.8464C9.65582 19.6086 10.1225 19.6902 10.3614 20.0292C10.5997 20.3679 10.5181 20.8355 10.1788 21.0744L7.57102 22.9063C7.44468 22.9953 7.29442 23.0426 7.13996 23.0426Z" fill="url(#paint5_linear_2027_32)"/>
<path fill-rule="evenodd" clip-rule="evenodd" d="M32.2512 26.1525H9.74823C9.33378 26.1525 8.99805 25.8169 8.99805 25.4025V9.50336C8.99805 9.08879 9.33378 8.75317 9.74823 8.75317H32.2516C32.6661 8.75317 33.0018 9.08879 33.0018 9.50336V25.4021C33.0014 25.8161 32.6656 26.1525 32.2512 26.1525Z" fill="url(#paint6_linear_2027_32)"/>
<path fill-rule="evenodd" clip-rule="evenodd" d="M13.4567 23.1144C13.3524 23.1144 13.2469 23.0926 13.1457 23.0465C12.7688 22.8749 12.6026 22.43 12.7754 22.053L16.9533 12.9001C17.0756 12.6326 17.3421 12.4614 17.6358 12.4614C17.9292 12.4614 18.1965 12.6326 18.318 12.9001L22.4964 22.0533C22.668 22.4303 22.5024 22.8754 22.1252 23.0468C21.7494 23.2187 21.3036 23.053 21.132 22.6765L17.6356 15.0178L14.1403 22.676C14.0135 22.9519 13.7411 23.1144 13.4567 23.1144Z" fill="url(#paint7_linear_2027_32)"/>
<path fill-rule="evenodd" clip-rule="evenodd" d="M20.3506 19.9794H14.8887C14.4743 19.9794 14.1387 19.6443 14.1387 19.2297C14.1387 18.8152 14.4743 18.4796 14.8887 18.4796L20.3502 18.4795C20.7647 18.4795 21.1003 18.8151 21.1003 19.2296C21.1003 19.644 20.7647 19.9794 20.3506 19.9794Z" fill="url(#paint8_linear_2027_32)"/>
<path fill-rule="evenodd" clip-rule="evenodd" d="M26.8264 23.1144C26.4118 23.1144 26.0762 22.7788 26.0762 22.3643V13.2116C26.0762 12.7972 26.4118 12.4614 26.8264 12.4614C27.2408 12.4614 27.576 12.7972 27.576 13.2116V22.3648C27.576 22.7788 27.2405 23.1144 26.8264 23.1144Z" fill="url(#paint9_linear_2027_32)"/>
<path fill-rule="evenodd" clip-rule="evenodd" d="M28.542 23.1143H25.1096C24.695 23.1143 24.3594 22.7787 24.3594 22.3642C24.3594 21.9496 24.695 21.614 25.1096 21.614H28.542C28.9566 21.614 29.2922 21.9496 29.2922 22.3642C29.2922 22.7787 28.9566 23.1143 28.542 23.1143Z" fill="url(#paint10_linear_2027_32)"/>
<defs>
<linearGradient id="paint0_linear_2027_32" x1="12.9745" y1="44.4378" x2="29.0058" y2="44.4378" gradientUnits="userSpaceOnUse">
<stop stop-color="#CAD8DD"/>
<stop offset="1" stop-color="#F2FFFF"/>
</linearGradient>
<linearGradient id="paint1_linear_2027_32" x1="2.90699" y1="21.1783" x2="39.104" y2="21.1783" gradientUnits="userSpaceOnUse">
<stop stop-color="#EBD05C"/>
<stop offset="1" stop-color="#FFF884"/>
</linearGradient>
<linearGradient id="paint2_linear_2027_32" x1="20.26" y1="31.8659" x2="21.7506" y2="31.8659" gradientUnits="userSpaceOnUse">
<stop stop-color="#E9AB00"/>
<stop offset="1" stop-color="#FFD314"/>
</linearGradient>
<linearGradient id="paint3_linear_2027_32" x1="31.3973" y1="13.5283" x2="41.0723" y2="13.5283" gradientUnits="userSpaceOnUse">
<stop stop-color="#E9AB00"/>
<stop offset="1" stop-color="#FFD314"/>
</linearGradient>
<linearGradient id="paint4_linear_2027_32" x1="0.909134" y1="13.5283" x2="10.6123" y2="13.5283" gradientUnits="userSpaceOnUse">
<stop stop-color="#E9AB00"/>
<stop offset="1" stop-color="#FFD314"/>
</linearGradient>
<linearGradient id="paint5_linear_2027_32" x1="0.909148" y1="21.319" x2="10.6123" y2="21.319" gradientUnits="userSpaceOnUse">
<stop stop-color="#E9AB00"/>
<stop offset="1" stop-color="#FFD314"/>
</linearGradient>
<linearGradient id="paint6_linear_2027_32" x1="9.00944" y1="17.4656" x2="33.0002" y2="17.4656" gradientUnits="userSpaceOnUse">
<stop stop-color="#274256"/>
<stop offset="1" stop-color="#4F6A7E"/>
</linearGradient>
<linearGradient id="paint7_linear_2027_32" x1="12.6092" y1="17.8314" x2="22.678" y2="17.8314" gradientUnits="userSpaceOnUse">
<stop stop-color="#EAEAEA"/>
<stop offset="1" stop-color="white"/>
</linearGradient>
<linearGradient id="paint8_linear_2027_32" x1="14.1285" y1="19.2375" x2="21.1035" y2="19.2375" gradientUnits="userSpaceOnUse">
<stop stop-color="#EAEAEA"/>
<stop offset="1" stop-color="white"/>
</linearGradient>
<linearGradient id="paint9_linear_2027_32" x1="26.0816" y1="17.7752" x2="27.5722" y2="17.7752" gradientUnits="userSpaceOnUse">
<stop stop-color="#EAEAEA"/>
<stop offset="1" stop-color="white"/>
</linearGradient>
<linearGradient id="paint10_linear_2027_32" x1="24.3655" y1="22.3594" x2="29.2874" y2="22.3594" gradientUnits="userSpaceOnUse">
<stop stop-color="#EAEAEA"/>
<stop offset="1" stop-color="white"/>
</linearGradient>
</defs>
</svg>
