<svg width="37" height="38" viewBox="0 0 37 38" fill="none" xmlns="http://www.w3.org/2000/svg">
<path d="M33.374 31.4686C31.1728 27.5603 27.7807 24.7578 23.822 23.4293C25.7801 22.2321 27.3015 20.4078 28.1524 18.2366C29.0034 16.0654 29.1368 13.6674 28.5323 11.4108C27.9278 9.15419 26.6188 7.16377 24.8062 5.7452C22.9936 4.32663 20.7778 3.55835 18.4989 3.55835C16.22 3.55835 14.0041 4.32663 12.1916 5.7452C10.379 7.16377 9.06994 9.15419 8.46544 11.4108C7.86093 13.6674 7.99439 16.0654 8.84533 18.2366C9.69627 20.4078 11.2176 22.2321 13.1758 23.4293C9.21708 24.7563 5.82494 27.5588 3.62372 31.4686C3.543 31.6038 3.48946 31.7542 3.46626 31.911C3.44305 32.0678 3.45066 32.2277 3.48862 32.3815C3.52659 32.5352 3.59414 32.6795 3.68731 32.806C3.78047 32.9324 3.89735 33.0384 4.03105 33.1178C4.16475 33.1971 4.31257 33.2481 4.46577 33.2678C4.61898 33.2875 4.77448 33.2754 4.92309 33.2324C5.0717 33.1894 5.21042 33.1162 5.33105 33.0173C5.45169 32.9183 5.5518 32.7955 5.62548 32.6561C8.34845 27.823 13.1613 24.9374 18.4989 24.9374C23.8364 24.9374 28.6493 27.823 31.3723 32.6561C31.446 32.7955 31.5461 32.9183 31.6667 33.0173C31.7873 33.1162 31.9261 33.1894 32.0747 33.2324C32.2233 33.2754 32.3788 33.2875 32.532 33.2678C32.6852 33.2481 32.833 33.1971 32.9667 33.1178C33.1004 33.0384 33.2173 32.9324 33.3105 32.806C33.4036 32.6795 33.4712 32.5352 33.5091 32.3815C33.5471 32.2277 33.5547 32.0678 33.5315 31.911C33.5083 31.7542 33.4548 31.6038 33.374 31.4686ZM10.4051 14.2499C10.4051 12.6058 10.8798 10.9987 11.7692 9.63171C12.6585 8.26473 13.9226 7.19929 15.4015 6.57014C16.8805 5.94099 18.5079 5.77637 20.0779 6.09711C21.6479 6.41785 23.0901 7.20954 24.222 8.37206C25.354 9.53459 26.1248 11.0157 26.4371 12.6282C26.7494 14.2407 26.5891 15.912 25.9765 17.4309C25.3639 18.9499 24.3265 20.2481 22.9955 21.1615C21.6645 22.0749 20.0997 22.5624 18.4989 22.5624C16.353 22.56 14.2956 21.6835 12.7783 20.1251C11.2609 18.5667 10.4074 16.4538 10.4051 14.2499Z" fill="black"/>
</svg>
