<svg width="60" height="60" viewBox="0 0 60 60" fill="none" xmlns="http://www.w3.org/2000/svg">
<g clip-path="url(#clip0_256_89)">
<path d="M58.3289 25.1953L54.6082 23.9871C54.416 23.9238 54.2977 23.8008 54.2484 23.6086C53.673 21.4277 52.8035 19.3313 51.6633 17.3754C51.5625 17.2043 51.5578 17.0344 51.6492 16.8562L53.4305 13.3641C53.9121 12.4172 53.7375 11.318 52.9852 10.5598L49.4402 7.01484C48.6867 6.26133 47.5863 6.08672 46.6348 6.5707L43.1426 8.35195C42.9656 8.44219 42.7945 8.43633 42.6234 8.33789C40.6676 7.19414 38.5699 6.32344 36.3914 5.75273C36.198 5.70117 36.0738 5.58516 36.0129 5.39648L34.8023 1.66641C34.4766 0.669141 33.5531 0 32.5043 0H27.4922C26.4293 0 25.5281 0.653906 25.1965 1.66758L23.9895 5.38945C23.9262 5.58164 23.8008 5.7 23.6086 5.75156C21.4219 6.32461 19.3242 7.19414 17.3813 8.33438C17.2055 8.43633 17.0344 8.44102 16.8574 8.35078L13.3652 6.56953C12.4148 6.08555 11.3145 6.26133 10.5609 7.01484L7.01484 10.5586C6.26133 11.3121 6.08672 12.4125 6.5707 13.3641L8.35195 16.8562C8.44219 17.0332 8.43633 17.2043 8.33789 17.3754C7.19414 19.3313 6.32344 21.4289 5.75273 23.6063C5.70117 23.7996 5.58281 23.9238 5.39531 23.9871L1.66992 25.1965C0.655078 25.527 0 26.4281 0 27.4922V32.5043C0 33.5543 0.670313 34.4777 1.67109 34.8035L5.39648 36.0129C5.58633 36.0738 5.7 36.1945 5.75156 36.3902C6.3293 38.5816 7.19883 40.6781 8.33438 42.6187C8.43516 42.7934 8.44102 42.9633 8.35078 43.1402L6.56953 46.6359C6.08555 47.5863 6.26133 48.6867 7.01484 49.4402L10.5621 52.9875C11.318 53.7375 12.4172 53.9121 13.3652 53.4293L16.8574 51.648C17.0355 51.5566 17.2055 51.5625 17.3766 51.6621C19.3254 52.8012 21.423 53.6707 23.6121 54.2484C23.802 54.2977 23.925 54.4148 23.9871 54.6047L25.1965 58.3301C25.527 59.3438 26.4281 60 27.4922 60H32.5043C33.5543 60 34.4777 59.3285 34.8035 58.3289L36.0129 54.6035C36.0738 54.4148 36.1957 54.2988 36.3902 54.2484C38.5711 53.6742 40.6676 52.8035 42.6246 51.6633C42.7957 51.5625 42.9656 51.5578 43.1437 51.6492L46.6359 53.4305C47.5828 53.9121 48.682 53.7387 49.4402 52.9852L52.9875 49.4379C53.7375 48.682 53.9109 47.5828 53.4293 46.6348L51.648 43.1391C51.5566 42.9598 51.5613 42.7957 51.6633 42.6223C52.8035 40.6676 53.673 38.5699 54.2496 36.3855C54.2988 36.1957 54.4137 36.0738 54.6012 36.0129L58.3301 34.8035C59.3285 34.4777 60 33.5543 60 32.5043V27.4922C60 26.4281 59.3449 25.527 58.3289 25.1953ZM58.1262 32.5043C58.1262 32.7516 57.9855 32.9449 57.7512 33.0223L54.0234 34.2316C53.2242 34.4906 52.6453 35.1059 52.4367 35.9133C51.9047 37.9301 51.1008 39.8707 50.0461 41.6777C49.623 42.4008 49.5984 43.2445 49.9805 43.991L51.7605 47.4855C51.8719 47.7047 51.8344 47.9414 51.6609 48.116L48.1184 51.6586C47.9414 51.8344 47.7047 51.8719 47.4867 51.7617L43.9957 49.9816C43.2469 49.5996 42.402 49.623 41.6789 50.0461C39.8695 51.1008 37.9301 51.9059 35.9168 52.4367C35.1035 52.6465 34.4883 53.2277 34.2305 54.0281L33.0211 57.7512C32.9437 57.9867 32.7504 58.1273 32.5031 58.1273H27.4922C27.2473 58.1273 27.0551 57.9867 26.9777 57.7512L25.7672 54.0234C25.5047 53.2242 24.8906 52.6465 24.0867 52.4367C22.0641 51.9035 20.1246 51.0984 18.3223 50.0461C17.9402 49.8223 17.5242 49.7098 17.1059 49.7098C16.732 49.7098 16.3582 49.8 16.0043 49.9805L12.5133 51.7605C12.2941 51.8719 12.0574 51.8344 11.8828 51.6609L8.33789 48.116C8.16328 47.9414 8.12578 47.7059 8.23828 47.4867L10.0195 43.9922C10.3992 43.2504 10.3758 42.4078 9.95391 41.6777C8.90156 39.8789 8.09766 37.9395 7.56328 35.9121C7.34766 35.1 6.76758 34.4871 5.97422 34.2316L2.25117 33.0234C2.01562 32.9461 1.87383 32.7527 1.87383 32.5055V27.4922C1.87383 27.2473 2.01445 27.0551 2.25 26.9777L5.97891 25.7672C6.77109 25.5047 7.34883 24.893 7.56328 24.0855C8.0918 22.0688 8.8957 20.1305 9.95625 18.3176C10.3758 17.591 10.3992 16.7473 10.0195 16.0055L8.23945 12.5156C8.12695 12.2953 8.16445 12.0598 8.33906 11.8852L11.884 8.34023C12.0586 8.16562 12.2941 8.12813 12.5133 8.24063L16.0043 10.0207C16.7473 10.4004 17.591 10.3781 18.3223 9.95508C20.1246 8.89922 22.0629 8.09531 24.0855 7.56445C24.0867 7.56445 24.0879 7.56328 24.0891 7.56328C24.893 7.34883 25.5047 6.77227 25.7684 5.97422L26.9766 2.25C27.0539 2.01562 27.2461 1.875 27.4922 1.875H32.5043C32.7516 1.875 32.9461 2.01562 33.0223 2.24648L34.2316 5.97305C34.4895 6.76875 35.1023 7.34883 35.9145 7.56328C37.9313 8.0918 39.8695 8.8957 41.6824 9.95625C42.409 10.3758 43.2527 10.3992 43.9945 10.0195L47.4844 8.23945C47.7047 8.12695 47.9402 8.16445 48.1148 8.33906L51.6574 11.8816C51.8332 12.0586 51.8707 12.2953 51.7605 12.5133L49.9805 16.0043C49.5984 16.7531 49.6219 17.5969 50.0449 18.3211C51.0996 20.1305 51.9047 22.0699 52.4355 24.0844C52.6453 24.8918 53.2242 25.5059 54.0258 25.7695L57.7488 26.9777C57.9844 27.0551 58.1262 27.2473 58.1262 27.4922V32.5043ZM30 13.6898C21.0059 13.6898 13.6898 21.007 13.6898 30C13.6898 38.993 21.0059 46.3102 30 46.3102C38.9941 46.3102 46.3102 38.9941 46.3102 30C46.3102 21.0059 38.9941 13.6898 30 13.6898ZM30 44.4363C22.0395 44.4363 15.5637 37.9605 15.5637 30C15.5637 22.0395 22.0395 15.5637 30 15.5637C37.9605 15.5637 44.4363 22.0395 44.4363 30C44.4363 37.9605 37.9605 44.4363 30 44.4363ZM30 18.1945C23.4902 18.1945 18.1945 23.4902 18.1945 30C18.1945 33.7254 19.9301 37.0535 22.6336 39.218C22.6875 39.273 22.7484 39.3199 22.8152 39.3609C24.8074 40.8937 27.2988 41.8066 30 41.8066C32.7012 41.8066 35.1937 40.8938 37.1848 39.3621C37.2516 39.3223 37.3125 39.2742 37.3664 39.2191C40.0699 37.0535 41.8055 33.7266 41.8055 30.0012C41.8055 23.4902 36.5098 18.1945 30 18.1945ZM24.2367 38.0812V36.4746C24.2367 34.4062 25.9195 32.7246 27.9867 32.7246H32.0098C34.0793 32.7246 35.7633 34.4074 35.7633 36.4746V38.0812C34.1367 39.2449 32.148 39.9316 30 39.9316C27.852 39.9328 25.8633 39.2449 24.2367 38.0812ZM37.6336 36.3457C37.5645 33.3035 35.0695 30.8496 32.0098 30.8496H27.9867C24.9281 30.8496 22.4344 33.3035 22.3664 36.3457C20.932 34.623 20.0684 32.4105 20.0684 30C20.0684 24.5238 24.5238 20.0672 30.0012 20.0672C35.4785 20.0672 39.9328 24.5227 39.9328 30C39.9316 32.4117 39.068 34.6242 37.6336 36.3457ZM30 22.1766C27.6586 22.1766 25.7543 24.0809 25.7543 26.4223C25.7543 28.7637 27.6586 30.668 30 30.668C32.3414 30.668 34.2457 28.7637 34.2457 26.4223C34.2457 24.0809 32.3414 22.1766 30 22.1766ZM30 28.7941C28.6922 28.7941 27.6281 27.7301 27.6281 26.4223C27.6281 25.1145 28.6922 24.0504 30 24.0504C31.3078 24.0504 32.3719 25.1145 32.3719 26.4223C32.3719 27.7301 31.3078 28.7941 30 28.7941Z" fill="black"/>
</g>
<defs>
<clipPath id="clip0_256_89">
<rect width="60" height="60" fill="white"/>
</clipPath>
</defs>
</svg>
