<svg width="41" height="41" viewBox="0 0 41 41" fill="none" xmlns="http://www.w3.org/2000/svg">
<path d="M9.08495 2.19797C10.053 2.39805 10.824 3.04848 11.303 3.90782L12.8289 6.64534C13.391 7.6536 13.864 8.50211 14.1728 9.23972C14.5005 10.0222 14.6951 10.7937 14.6062 11.6468C14.5172 12.4999 14.1676 13.2147 13.6855 13.9127C13.2311 14.5707 12.5932 15.3034 11.8352 16.174L9.59217 18.7506C9.19024 19.2122 8.98925 19.443 8.97089 19.7315C8.95252 20.02 9.11724 20.2666 9.44667 20.7594C12.2545 24.9604 16.0387 28.7459 20.243 31.5561C20.736 31.8856 20.9824 32.0503 21.2709 32.0318C21.5594 32.0136 21.7904 31.8125 22.252 31.4105L24.8287 29.1675C25.6992 28.4095 26.4319 27.7716 27.09 27.3172C27.7879 26.8351 28.5028 26.4854 29.3558 26.3966C30.2089 26.3076 30.9806 26.5021 31.763 26.8298C32.5005 27.1387 33.349 27.6117 34.3571 28.1736L37.0949 29.6996C37.9541 30.1786 38.6047 30.9496 38.8047 31.9177C39.0068 32.8959 38.7087 33.8791 38.05 34.6873C35.6602 37.6193 31.8313 39.4863 27.8147 38.6761C25.3458 38.1779 22.9097 37.3482 19.9633 35.6585C14.0433 32.2633 8.73537 26.9525 5.3442 21.0394C3.65445 18.093 2.8247 15.657 2.32665 13.188C1.51639 9.1713 3.3833 5.34245 6.31544 2.95264C7.12353 2.29401 8.10676 1.99579 9.08495 2.19797Z" fill="white"/>
<path fill-rule="evenodd" clip-rule="evenodd" d="M23.9154 3.41675C24.8589 3.41675 25.6237 4.1816 25.6237 5.12508V9.90842C25.6237 10.8519 24.8589 11.6167 23.9154 11.6167C22.9719 11.6167 22.207 10.8519 22.207 9.90842V5.12508C22.207 4.1816 22.9719 3.41675 23.9154 3.41675ZM33.5799 7.42052C34.247 8.08767 34.247 9.16932 33.5799 9.83648L30.1976 13.2188C29.5305 13.8859 28.4488 13.8859 27.7817 13.2188C27.1146 12.5517 27.1146 11.47 27.7817 10.8028L31.164 7.42052C31.8311 6.75338 32.9128 6.75338 33.5799 7.42052ZM29.382 17.0834C29.382 16.1399 30.1469 15.3751 31.0904 15.3751H35.8737C36.8172 15.3751 37.582 16.1399 37.582 17.0834C37.582 18.0269 36.8172 18.7917 35.8737 18.7917H31.0904C30.1469 18.7917 29.382 18.0269 29.382 17.0834Z" fill="white"/>
</svg>
