<svg width="32" height="32" viewBox="0 0 32 32" fill="none" xmlns="http://www.w3.org/2000/svg">
<g clip-path="url(#clip0_201_41)">
<path fill-rule="evenodd" clip-rule="evenodd" d="M2.32715 9.02561V24.9625C2.32781 25.56 2.56545 26.1328 2.98794 26.5553C3.41043 26.9779 3.98327 27.2155 4.58077 27.2162H7.29146V31.5C7.29146 31.6326 7.34414 31.7598 7.43791 31.8535C7.53168 31.9473 7.65885 32 7.79146 32C7.87919 31.9998 7.96535 31.9767 8.04146 31.933L16.2115 27.2162H27.4196C28.017 27.2153 28.5897 26.9776 29.012 26.5551C29.4344 26.1326 29.672 25.5599 29.6727 24.9625V9.02561C29.6719 8.4282 29.4344 7.85544 29.012 7.43293C28.5897 7.01041 28.017 6.77261 27.4196 6.77167H16.4999C16.4999 6.76817 16.5005 6.76373 16.5005 6.75986V4.49298C17.0464 4.36995 17.5278 4.04995 17.8526 3.5942C18.1774 3.13846 18.3227 2.57897 18.2608 2.02277C18.1989 1.46657 17.9341 0.952722 17.5171 0.579529C17.1001 0.206335 16.5601 0 16.0005 0C15.4408 0 14.9008 0.206335 14.4838 0.579529C14.0668 0.952722 13.802 1.46657 13.7401 2.02277C13.6782 2.57897 13.8236 3.13846 14.1483 3.5942C14.4731 4.04995 14.9545 4.36995 15.5005 4.49298V6.75986C15.5005 6.76373 15.5011 6.76817 15.5011 6.77167H4.58077C3.98323 6.77237 3.41037 7.01007 2.98788 7.43262C2.56538 7.85517 2.32776 8.42807 2.32715 9.02561ZM9.9834 17.6719C9.44336 17.6718 8.91546 17.5117 8.46645 17.2116C8.01744 16.9115 7.66749 16.4851 7.46084 15.9861C7.25419 15.4872 7.20013 14.9382 7.3055 14.4085C7.41087 13.8789 7.67092 13.3924 8.05279 13.0105C8.43465 12.6286 8.92118 12.3686 9.45083 12.2632C9.98049 12.1578 10.5295 12.2119 11.0284 12.4185C11.5274 12.6252 11.9538 12.9751 12.2539 13.4242C12.5539 13.8732 12.7141 14.4011 12.7141 14.9411C12.7134 15.6651 12.4254 16.3592 11.9135 16.8712C11.4015 17.3831 10.7074 17.6711 9.9834 17.6719ZM9.9834 13.2106C10.3257 13.2106 10.6603 13.3121 10.9449 13.5022C11.2295 13.6924 11.4513 13.9627 11.5823 14.2789C11.7133 14.5951 11.7475 14.9431 11.6808 15.2788C11.614 15.6145 11.4492 15.9228 11.2072 16.1649C10.9651 16.4069 10.6568 16.5717 10.3211 16.6385C9.98536 16.7053 9.6374 16.671 9.32118 16.54C9.00495 16.409 8.73468 16.1872 8.54453 15.9026C8.35437 15.618 8.25289 15.2834 8.2529 14.9411C8.25346 14.4823 8.43596 14.0425 8.76037 13.7181C9.08478 13.3937 9.52461 13.2112 9.9834 13.2106ZM22.0173 17.6719C21.4773 17.6718 20.9494 17.5117 20.5004 17.2116C20.0514 16.9116 19.7014 16.4851 19.4947 15.9862C19.2881 15.4873 19.234 14.9382 19.3394 14.4086C19.4447 13.8789 19.7048 13.3924 20.0866 13.0105C20.4685 12.6286 20.955 12.3686 21.4847 12.2632C22.0143 12.1578 22.5634 12.2119 23.0623 12.4185C23.5612 12.6252 23.9877 12.9751 24.2878 13.4242C24.5878 13.8732 24.748 14.4011 24.748 14.9411C24.7472 15.6651 24.4592 16.3591 23.9473 16.8711C23.4354 17.383 22.7413 17.671 22.0173 17.6719ZM22.0173 13.2106C22.3596 13.2106 22.6942 13.3121 22.9788 13.5023C23.2634 13.6924 23.4852 13.9627 23.6162 14.2789C23.7472 14.5951 23.7814 14.9431 23.7146 15.2788C23.6479 15.6145 23.483 15.9229 23.241 16.1649C22.999 16.4069 22.6906 16.5717 22.3549 16.6385C22.0192 16.7053 21.6713 16.671 21.355 16.54C21.0388 16.409 20.7685 16.1872 20.5784 15.9026C20.3882 15.618 20.2868 15.2834 20.2868 14.9411C20.2873 14.4823 20.4698 14.0424 20.7942 13.718C21.1187 13.3936 21.5585 13.2111 22.0173 13.2106ZM12.824 20.8057C13.7818 21.3863 14.8804 21.6933 16.0005 21.6933C17.1206 21.6933 18.2192 21.3863 19.177 20.8057C19.2332 20.769 19.2962 20.7441 19.3623 20.7323C19.4284 20.7205 19.4961 20.7221 19.5615 20.7371C19.627 20.752 19.6887 20.78 19.7431 20.8193C19.7975 20.8586 19.8434 20.9085 19.8781 20.9659C19.9128 21.0233 19.9356 21.0872 19.9451 21.1536C19.9546 21.22 19.9506 21.2877 19.9335 21.3525C19.9163 21.4174 19.8862 21.4782 19.845 21.5312C19.8039 21.5842 19.7525 21.6283 19.6939 21.661C18.5802 22.3365 17.3027 22.6937 16.0002 22.6937C14.6976 22.6937 13.4201 22.3365 12.3064 21.661C12.2486 21.6279 12.198 21.5835 12.1577 21.5305C12.1173 21.4775 12.0879 21.417 12.0712 21.3525C12.0546 21.288 12.0509 21.2208 12.0606 21.1548C12.0703 21.0889 12.093 21.0256 12.1275 20.9686C12.162 20.9116 12.2075 20.8621 12.2615 20.8229C12.3154 20.7837 12.3765 20.7557 12.4414 20.7406C12.5063 20.7254 12.5735 20.7233 12.6392 20.7345C12.7049 20.7457 12.7677 20.7699 12.8239 20.8057H12.824Z" fill="black"/>
</g>
<defs>
<clipPath id="clip0_201_41">
<rect width="32" height="32" fill="white"/>
</clipPath>
</defs>
</svg>
