<svg width="21" height="21" viewBox="0 0 21 21" fill="none" xmlns="http://www.w3.org/2000/svg">
<path d="M14.959 7.60352C15.0316 7.67607 15.0893 7.76224 15.1286 7.85708C15.1679 7.95192 15.1881 8.05358 15.1881 8.15625C15.1881 8.25892 15.1679 8.36058 15.1286 8.45542C15.0893 8.55026 15.0316 8.63643 14.959 8.70898L9.49024 14.1777C9.41768 14.2504 9.33152 14.308 9.23668 14.3473C9.14183 14.3866 9.04017 14.4069 8.9375 14.4069C8.83484 14.4069 8.73317 14.3866 8.63833 14.3473C8.54349 14.308 8.45733 14.2504 8.38477 14.1777L6.04102 11.834C5.89443 11.6874 5.81207 11.4886 5.81207 11.2812C5.81207 11.0739 5.89443 10.8751 6.04102 10.7285C6.18761 10.5819 6.38644 10.4996 6.59375 10.4996C6.80107 10.4996 6.9999 10.5819 7.14649 10.7285L8.9375 12.5205L13.8535 7.60352C13.9261 7.53088 14.0122 7.47325 14.1071 7.43394C14.2019 7.39462 14.3036 7.37439 14.4063 7.37439C14.5089 7.37439 14.6106 7.39462 14.7054 7.43394C14.8003 7.47325 14.8864 7.53088 14.959 7.60352ZM20.6563 10.5C20.6563 12.5087 20.0606 14.4723 18.9446 16.1425C17.8286 17.8127 16.2424 19.1144 14.3866 19.8832C12.5308 20.6519 10.4887 20.853 8.51862 20.4611C6.5485 20.0692 4.73883 19.1019 3.31845 17.6816C1.89807 16.2612 0.930785 14.4515 0.538904 12.4814C0.147023 10.5113 0.348151 8.46918 1.11685 6.61337C1.88556 4.75756 3.18731 3.17137 4.85749 2.05539C6.52768 0.939404 8.49129 0.34375 10.5 0.34375C13.1927 0.346594 15.7744 1.41754 17.6784 3.32159C19.5825 5.22564 20.6534 7.80727 20.6563 10.5ZM19.0938 10.5C19.0938 8.80032 18.5897 7.1388 17.6454 5.72557C16.7012 4.31233 15.359 3.21085 13.7887 2.56041C12.2184 1.90997 10.4905 1.73978 8.82345 2.07138C7.15642 2.40297 5.62516 3.22144 4.42331 4.4233C3.22145 5.62516 2.40297 7.15642 2.07138 8.82344C1.73979 10.4905 1.90997 12.2184 2.56041 13.7887C3.21086 15.359 4.31234 16.7011 5.72557 17.6454C7.13881 18.5897 8.80032 19.0938 10.5 19.0938C12.7784 19.0912 14.9628 18.1849 16.5738 16.5738C18.1849 14.9628 19.0912 12.7784 19.0938 10.5Z" fill="white"/>
</svg>
