<svg width="31" height="31" viewBox="0 0 31 31" fill="none" xmlns="http://www.w3.org/2000/svg">
<g clip-path="url(#clip0_2111_141)">
<path d="M29.0656 22.3867C32.0613 18.1837 31.6033 12.4254 27.5117 8.67443C25.6422 6.96065 23.2589 5.89375 20.6844 5.5958C20.6683 5.57606 20.6519 5.55651 20.6339 5.5378C18.3943 3.21128 15.1766 1.87695 11.8059 1.87695C5.39164 1.87695 0 6.6561 0 12.7754C0 14.9209 0.666439 16.9776 1.93241 18.7538L0.1639 24.3064C0.0527363 24.6554 0.162084 25.0369 0.441144 25.274C0.720689 25.5116 1.11503 25.5573 1.44083 25.3915L6.81903 22.6568C7.92353 23.1324 9.09475 23.4445 10.3076 23.5865C12.6473 26.0468 15.8824 27.3066 19.1921 27.3066C20.9126 27.3066 22.6269 26.956 24.1788 26.2896L29.5572 29.0244C29.6875 29.0907 29.8285 29.123 29.9686 29.123C30.5816 29.123 31.0209 28.5258 30.8342 27.9392L29.0656 22.3867ZM7.18558 20.8294C6.93122 20.7086 6.63533 20.7126 6.38436 20.8402L2.55375 22.788L3.80464 18.8606C3.89571 18.5746 3.8397 18.2622 3.65491 18.0258C2.45209 16.4861 1.81629 14.6706 1.81629 12.7754C1.81629 7.76756 6.2976 3.69336 11.8059 3.69336C14.0241 3.69336 16.1595 4.36537 17.8917 5.57552C12.0582 6.1621 7.38623 10.7185 7.38623 16.4082C7.38623 18.1779 7.83985 19.8815 8.69508 21.4079C8.17728 21.2537 7.67298 21.0609 7.18558 20.8294ZM24.6137 24.473C24.3664 24.3472 24.0702 24.3397 23.8125 24.4622C22.3966 25.1348 20.7989 25.4902 19.1921 25.4902C13.6838 25.4902 9.20252 21.416 9.20252 16.4082C9.20252 11.4004 13.6838 7.32617 19.1921 7.32617C24.7005 7.32617 29.1818 11.4004 29.1818 16.4082C29.1818 18.3034 28.546 20.1189 27.3431 21.6585C27.1584 21.895 27.1024 22.2074 27.1934 22.4933L28.4443 26.4208L24.6137 24.473Z" fill="black"/>
<path d="M15.499 17.3164C16.0006 17.3164 16.4072 16.9098 16.4072 16.4082C16.4072 15.9066 16.0006 15.5 15.499 15.5C14.9974 15.5 14.5908 15.9066 14.5908 16.4082C14.5908 16.9098 14.9974 17.3164 15.499 17.3164Z" fill="black"/>
<path d="M19.1318 17.3164C19.6334 17.3164 20.04 16.9098 20.04 16.4082C20.04 15.9066 19.6334 15.5 19.1318 15.5C18.6302 15.5 18.2236 15.9066 18.2236 16.4082C18.2236 16.9098 18.6302 17.3164 19.1318 17.3164Z" fill="black"/>
<path d="M22.7646 17.3164C23.2662 17.3164 23.6729 16.9098 23.6729 16.4082C23.6729 15.9066 23.2662 15.5 22.7646 15.5C22.2631 15.5 21.8564 15.9066 21.8564 16.4082C21.8564 16.9098 22.2631 17.3164 22.7646 17.3164Z" fill="black"/>
</g>
<defs>
<clipPath id="clip0_2111_141">
<rect width="31" height="31" fill="white"/>
</clipPath>
</defs>
</svg>
