<svg width="65" height="65" viewBox="0 0 65 65" fill="none" xmlns="http://www.w3.org/2000/svg">
<mask id="mask0_203_69" style="mask-type:luminance" maskUnits="userSpaceOnUse" x="0" y="0" width="65" height="65">
<path d="M0 0H65V65H0V0Z" fill="white"/>
</mask>
<g mask="url(#mask0_203_69)">
<path d="M21.3609 59.6495L24.0717 60.5886C27.2599 61.6933 30.6653 62.0262 34.0072 61.5634L50.7409 59.2415H54.7034V43.4444L54.3325 43.2639C47.6558 39.2871 44.0528 39.0812 37.7527 41.8306H28.6888C26.2484 41.8306 24.2691 43.8098 24.2691 46.2503C24.2691 47.4705 24.7643 48.5751 25.5642 49.375C26.3641 50.1748 27.4686 50.6701 28.6888 50.6701H37.7527V50.6757H23.4566L8.1265 46.2771C5.97808 45.6606 3.72517 46.854 3.03111 48.9801C2.89146 49.4088 2.8252 49.8434 2.8252 50.2722C2.8252 51.9947 3.9043 53.6028 5.62121 54.1967L9.64143 55.5895L21.3609 59.6495Z" stroke="black" stroke-width="2" stroke-miterlimit="10" stroke-linecap="round" stroke-linejoin="round"/>
<path d="M62.9307 55.6809V63.7306H54.7031V43.4439H62.9307V55.6809Z" stroke="black" stroke-width="2" stroke-miterlimit="10" stroke-linecap="round" stroke-linejoin="round"/>
<path d="M2.49539 27.7468C2.21673 29.1511 2.06934 30.6027 2.06934 32.0888C2.06934 37.4117 3.94354 42.2948 7.06761 46.1165C7.41838 46.1242 7.77436 46.1767 8.1264 46.2775L23.4562 50.6763H36.3518C36.3557 50.675 36.3584 50.6723 36.3623 50.6697H28.6889C27.4677 50.6697 26.3631 50.1751 25.5635 49.3754C24.7637 48.5757 24.269 47.4711 24.269 46.2499C24.269 43.8104 26.2479 41.8302 28.6889 41.8302H37.7522C40.519 40.6235 42.7649 39.9861 44.9794 39.9873C45.9151 37.5334 46.4268 34.8714 46.4268 32.0888C46.4268 19.8386 36.4971 9.90883 24.2482 9.90883C17.5657 9.90883 11.5742 12.8643 7.50788 17.5393" stroke="black" stroke-width="2" stroke-miterlimit="10" stroke-linecap="round" stroke-linejoin="round"/>
<path d="M24.248 4.75537V1.26949" stroke="black" stroke-width="2" stroke-miterlimit="10" stroke-linecap="round" stroke-linejoin="round"/>
<path d="M40.2568 8.55261L42.7216 5.56414" stroke="black" stroke-width="2" stroke-miterlimit="10" stroke-linecap="round" stroke-linejoin="round"/>
<path d="M9.30281 8.55261L6.83789 5.56414" stroke="black" stroke-width="2" stroke-miterlimit="10" stroke-linecap="round" stroke-linejoin="round"/>
<path d="M38.3394 22.552L25.0264 35.8651" stroke="black" stroke-width="2" stroke-miterlimit="10" stroke-linecap="round" stroke-linejoin="round"/>
<path d="M26.7858 22.0793C28.0963 22.0793 29.1586 23.1417 29.1586 24.4521C29.1586 25.7626 28.0963 26.825 26.7858 26.825C25.4754 26.825 24.4131 25.7626 24.4131 24.4521C24.4131 23.1417 25.4754 22.0793 26.7858 22.0793Z" stroke="black" stroke-width="2" stroke-miterlimit="10" stroke-linecap="round" stroke-linejoin="round"/>
<path d="M36.5007 31.7942C37.8111 31.7942 38.8734 32.8565 38.8734 34.1669C38.8734 35.4775 37.8111 36.5398 36.5007 36.5398C35.1903 36.5398 34.1279 35.4775 34.1279 34.1669C34.1279 32.8565 35.1903 31.7942 36.5007 31.7942Z" stroke="black" stroke-width="2" stroke-miterlimit="10" stroke-linecap="round" stroke-linejoin="round"/>
<path d="M15.3031 35.8651H13.5965C11.7013 35.8651 10.165 34.3289 10.165 32.4337V25.2681C10.165 23.3731 11.7013 21.8367 13.5965 21.8367H15.3031C17.1982 21.8367 18.7345 23.3731 18.7345 25.2681V32.4337C18.7345 34.3289 17.1982 35.8651 15.3031 35.8651Z" stroke="black" stroke-width="2" stroke-miterlimit="10" stroke-linecap="round" stroke-linejoin="round"/>
</g>
</svg>
