<svg width="162" height="162" viewBox="0 0 162 162" fill="none" xmlns="http://www.w3.org/2000/svg">
<path d="M81 14.0908V2.37305" stroke="black" stroke-width="2" stroke-miterlimit="10" stroke-linecap="round" stroke-linejoin="round"/>
<path d="M68.7135 17.0267L64.23 12.5796" stroke="black" stroke-width="2" stroke-miterlimit="10" stroke-linecap="round" stroke-linejoin="round"/>
<path d="M93.2861 17.0267L97.7696 12.5796" stroke="black" stroke-width="2" stroke-miterlimit="10" stroke-linecap="round" stroke-linejoin="round"/>
<path d="M114.903 76.7444L98.9052 36.7949C98.8356 36.6241 98.7755 36.4532 98.7217 36.2792L98.7185 36.2665C98.4559 35.466 98.3325 34.6497 98.3325 33.8429C98.3325 30.6946 100.221 27.7204 103.322 26.4769C107.394 24.8506 112.017 26.8313 113.647 30.9003L117.111 39.5508" stroke="black" stroke-width="2" stroke-miterlimit="10" stroke-linecap="round" stroke-linejoin="round"/>
<path d="M135.988 86.6921L121.228 49.834" stroke="black" stroke-width="2" stroke-miterlimit="10" stroke-linecap="round" stroke-linejoin="round"/>
<path d="M81.5963 36.2794C79.9665 32.2095 81.9453 27.5912 86.0162 25.9636C90.0871 24.3363 94.7085 26.3164 96.3383 30.386L98.7205 36.2791" stroke="black" stroke-width="2" stroke-miterlimit="10" stroke-linecap="round" stroke-linejoin="round"/>
<path d="M81.2251 117.798L83.2859 123.456C85.7257 129.549 89.7627 134.872 94.972 138.867C100.218 142.889 104.274 148.259 106.708 154.403L108.778 159.627" stroke="black" stroke-width="2" stroke-miterlimit="10" stroke-linecap="round" stroke-linejoin="round"/>
<path d="M125.082 115.95C121.412 106.784 125.028 96.4755 133.052 91.2991C135.121 89.9607 136.425 87.7047 136.485 85.2431C136.713 76.2445 139.206 68.1445 142.149 63.2655C143.171 61.5695 144.003 60.5918 145.265 59.5192C148.499 56.7697 153.068 55.8964 157.112 57.76C157.507 57.9435 157.846 58.1998 158.121 58.5067C158.903 59.38 159.149 60.6551 158.656 61.7942L156.068 67.73C154.356 71.8559 153.555 75.6243 154.527 82.1613L156.204 92.2261C156.488 93.7639 156.703 95.2162 156.852 96.5862" stroke="black" stroke-width="2" stroke-miterlimit="10" stroke-linecap="round" stroke-linejoin="round"/>
<path d="M156.526 107.66C155.805 111.223 154.482 114.194 152.834 117.083C150.901 120.494 150.609 124.598 152.049 128.249L159.627 147.477" stroke="black" stroke-width="2" stroke-miterlimit="10" stroke-linecap="round" stroke-linejoin="round"/>
<path d="M61.6318 83.1548L77.8255 42.7178C79.4553 38.6478 84.0767 36.6677 88.1476 38.2953C92.2185 39.9226 94.1973 44.5412 92.5675 48.6111L74.3903 93.9999" stroke="black" stroke-width="2" stroke-miterlimit="10" stroke-linecap="round" stroke-linejoin="round"/>
<path d="M47.0972 76.7438L65.6617 30.3865C67.2915 26.3165 71.9129 24.3364 75.9838 25.964C80.0547 27.5913 82.0335 32.2099 80.4037 36.2798L77.8253 42.7181" stroke="black" stroke-width="2" stroke-miterlimit="10" stroke-linecap="round" stroke-linejoin="round"/>
<path d="M53.2227 159.627L55.292 154.403C56.5101 151.331 58.1301 148.451 60.1045 145.838C62.0789 143.224 64.4044 140.877 67.0275 138.867C72.2387 134.871 76.276 129.549 78.7155 123.455L87.2047 102.253" stroke="black" stroke-width="2" stroke-miterlimit="10" stroke-linecap="round" stroke-linejoin="round"/>
<path d="M86.9419 62.7211C88.4765 58.8894 92.8271 57.0258 96.6556 58.5572C99.576 59.7248 101.354 62.5281 101.354 65.4928C101.354 66.4168 101.18 67.3533 100.816 68.2646L91.3241 91.9729" stroke="black" stroke-width="2" stroke-miterlimit="10" stroke-linecap="round" stroke-linejoin="round"/>
<path d="M38.0859 56.5419L48.3533 30.9003C49.9828 26.8313 54.6055 24.8506 58.6777 26.4769C61.7784 27.7204 63.6674 30.6946 63.6674 33.8429C63.6674 34.8269 63.4839 35.8267 63.0947 36.7949" stroke="black" stroke-width="2" stroke-miterlimit="10" stroke-linecap="round" stroke-linejoin="round"/>
<path d="M2.37305 147.477L9.95098 128.249C11.3906 124.598 11.0995 120.494 9.16629 117.083C6.6382 112.65 4.87266 108.024 4.87266 101.37C4.87266 98.6903 5.15742 95.6813 5.79656 92.2261L7.47352 82.1613C8.44488 75.6243 7.64437 71.8559 5.93262 67.73L3.34441 61.7942C2.85082 60.6551 3.09762 59.38 3.87914 58.5067C4.15441 58.1998 4.49297 57.9435 4.88848 57.76C8.93215 55.8964 13.5011 56.7697 16.7347 59.5192C17.9972 60.5918 18.8293 61.5695 19.8513 63.2655C23.0818 68.6159 25.7681 77.8486 25.515 87.8914H25.5308L33.963 66.8314" stroke="black" stroke-width="2" stroke-miterlimit="10" stroke-linecap="round" stroke-linejoin="round"/>
</svg>
