<svg width="24" height="13" viewBox="0 0 24 13" fill="none" xmlns="http://www.w3.org/2000/svg">
<path d="M23.8412 6.13157L18.3868 0.904401C18.1909 0.685143 17.8466 0.659583 17.6178 0.847397C17.389 1.03517 17.3623 1.36515 17.5583 1.58441C17.5766 1.60485 17.5965 1.62394 17.6178 1.64142L22.1395 5.97996H0.545425C0.244213 5.97996 0 6.214 0 6.5027C0 6.79141 0.244213 7.0254 0.545425 7.0254H22.1395L17.6178 11.3587C17.389 11.5465 17.3623 11.8764 17.5583 12.0957C17.7543 12.315 18.0986 12.3405 18.3274 12.1527C18.3487 12.1352 18.3686 12.1161 18.3868 12.0957L23.8413 6.86854C24.0527 6.66473 24.0527 6.33546 23.8412 6.13157Z" fill="white"/>
</svg>
