<svg width="23" height="29" viewBox="0 0 23 29" fill="none" xmlns="http://www.w3.org/2000/svg">
<path d="M22.1388 5.44741L16.5788 0.447408C16.3954 0.28071 16.1566 0.188055 15.9088 0.187408L3.68875 0.187408C2.86522 0.163022 2.06529 0.464321 1.46248 1.02594C0.85967 1.58756 0.502608 2.36421 0.46875 3.18741L0.46875 25.1874C0.502608 26.0106 0.85967 26.7873 1.46248 27.3489C2.06529 27.9105 2.86522 28.2118 3.68875 28.1874H19.2488C20.0723 28.2118 20.8722 27.9105 21.475 27.3489C22.0778 26.7873 22.4349 26.0106 22.4688 25.1874V6.18741C22.4684 6.04786 22.4389 5.90993 22.3821 5.78249C22.3252 5.65504 22.2423 5.5409 22.1388 5.44741ZM19.9788 6.18741L16.4688 6.18741C16.2035 6.18741 15.9492 6.08205 15.7616 5.89452C15.5741 5.70698 15.4688 5.45263 15.4688 5.18741V2.18741H15.5287L19.9788 6.18741ZM20.4688 25.1874C20.4359 25.4803 20.29 25.7487 20.0621 25.9355C19.8342 26.1223 19.5423 26.2127 19.2488 26.1874H3.68875C3.39516 26.2127 3.10329 26.1223 2.87538 25.9355C2.64748 25.7487 2.50156 25.4803 2.46875 25.1874L2.46875 3.18741C2.50156 2.89456 2.64748 2.62611 2.87538 2.4393C3.10329 2.25249 3.39516 2.16211 3.68875 2.18741L13.4688 2.18741V5.18741C13.4688 5.98306 13.7848 6.74612 14.3474 7.30873C14.91 7.87134 15.6731 8.18741 16.4688 8.18741H20.4688V25.1874ZM16.4688 12.1874C16.4688 12.4526 16.3634 12.707 16.1759 12.8945C15.9883 13.0821 15.734 13.1874 15.4688 13.1874H7.46875C7.20353 13.1874 6.94918 13.0821 6.76164 12.8945C6.57411 12.707 6.46875 12.4526 6.46875 12.1874C6.46875 11.9222 6.57411 11.6678 6.76164 11.4803C6.94918 11.2928 7.20353 11.1874 7.46875 11.1874H15.4688C15.734 11.1874 15.9883 11.2928 16.1759 11.4803C16.3634 11.6678 16.4688 11.9222 16.4688 12.1874ZM16.4688 17.1874C16.4688 17.4526 16.3634 17.707 16.1759 17.8945C15.9883 18.0821 15.734 18.1874 15.4688 18.1874H7.46875C7.20353 18.1874 6.94918 18.0821 6.76164 17.8945C6.57411 17.707 6.46875 17.4526 6.46875 17.1874C6.46875 16.9222 6.57411 16.6678 6.76164 16.4803C6.94918 16.2928 7.20353 16.1874 7.46875 16.1874H15.4688C15.734 16.1874 15.9883 16.2928 16.1759 16.4803C16.3634 16.6678 16.4688 16.9222 16.4688 17.1874ZM16.4688 22.1874C16.4688 22.4526 16.3634 22.707 16.1759 22.8945C15.9883 23.0821 15.734 23.1874 15.4688 23.1874H7.46875C7.20353 23.1874 6.94918 23.0821 6.76164 22.8945C6.57411 22.707 6.46875 22.4526 6.46875 22.1874C6.46875 21.9222 6.57411 21.6678 6.76164 21.4803C6.94918 21.2928 7.20353 21.1874 7.46875 21.1874H15.4688C15.734 21.1874 15.9883 21.2928 16.1759 21.4803C16.3634 21.6678 16.4688 21.9222 16.4688 22.1874Z" fill="black"/>
</svg>
