<svg width="36" height="34" viewBox="0 0 36 34" fill="none" xmlns="http://www.w3.org/2000/svg">
<mask id="mask0_2127_49" style="mask-type:alpha" maskUnits="userSpaceOnUse" x="0" y="0" width="36" height="34">
<rect width="36" height="34" fill="#D9D9D9"/>
</mask>
<g mask="url(#mask0_2127_49)">
</g>
<path d="M16.9412 17C16.9412 26.4535 11.4434 31.0516 0 31.0161C0 31.0123 0 21.6736 0 2.99997C0 1.34313 1.42214 0 3.17644 0H32.8235C33.7595 0 34.6009 0.382367 35.1823 0.990715C23.1617 1.19651 16.9412 6.60224 16.9412 17ZM36 2.9839V31C36 32.6569 34.5779 34 32.8236 34H3.17644C2.24044 34 1.39901 33.6176 0.817664 33.0093C12.8383 32.8035 19.0588 27.3978 19.0588 17C19.0588 7.54654 24.5566 2.94837 36 2.9839Z" fill="black"/>
</svg>
